<?xml version="1.0" encoding="UTF-8" standalone="no"?> <!-- Created with Vectornator for iOS (http://vectornator.io/) --><!DOCTYPE svg PUBLIC "-//W3C//DTD SVG 1.1//EN" "http://www.w3.org/Graphics/SVG/1.1/DTD/svg11.dtd">
<svg height="100%" style="fill-rule:evenodd;clip-rule:evenodd;stroke-linecap:round;stroke-linejoin:round;" xmlns:xlink="http://www.w3.org/1999/xlink" xmlns="http://www.w3.org/2000/svg" xml:space="preserve" width="100%" xmlns:vectornator="http://vectornator.io" version="1.1" viewBox="0 0 1760 500">
<metadata>
<vectornator:setting key="DimensionsVisible" value="1"/>
<vectornator:setting key="New" value="1"/>
<vectornator:setting key="SnapToPoints" value="1"/>
<vectornator:setting key="GuidesVisible" value="1"/>
<vectornator:setting key="RulersVisible" value="1"/>
<vectornator:setting key="CMYKEnabledKey" value="0"/>
<vectornator:setting key="SnapToEdges" value="1"/>
<vectornator:setting key="DisplayWhiteBackground" value="0"/>
<vectornator:setting key="idAngle" value="45"/>
<vectornator:setting key="SnapToGuides" value="1"/>
<vectornator:setting key="Units" value="Pixels"/>
<vectornator:setting key="GridSpacing" value="36"/>
<vectornator:setting key="SnapToGrid" value="1"/>
<vectornator:setting key="DynamicGuides" value="1"/>
</metadata>
<defs>
<linearGradient y1="659.974" id="LinearGradient" x1="298.355" y2="658.862" x2="743.947" gradientUnits="userSpaceOnUse" gradientTransform="matrix(-0.4222 -0.422199 0.866047 -0.866045 -164.351 1166.6)">
<stop stop-color="#199bcc" offset="0"/>
<stop stop-color="#0975a4" offset="1"/>
</linearGradient>
<linearGradient y1="659.974" id="LinearGradient_2" x1="298.355" y2="661.171" x2="743.942" gradientUnits="userSpaceOnUse" gradientTransform="matrix(0.4222 -0.422199 0.866048 0.866046 -666.599 -164.351)">
<stop stop-color="#199bcc" offset="0"/>
<stop stop-color="#0975a4" offset="1"/>
</linearGradient>
<linearGradient y1="659.974" id="LinearGradient_3" x1="298.355" y2="658" x2="743.944" gradientUnits="userSpaceOnUse" gradientTransform="matrix(0.4222 0.422199 -0.866047 0.866045 663.708 -666.597)">
<stop stop-color="#199bcc" offset="0"/>
<stop stop-color="#0975a4" offset="1"/>
</linearGradient>
<linearGradient y1="659.974" id="LinearGradient_4" x1="298.355" y2="659.974" x2="891.238" gradientUnits="userSpaceOnUse" gradientTransform="matrix(-0.317843 0.317842 -0.866055 -0.866052 1135.47 695.807)">
<stop stop-color="#199bcc" offset="0"/>
<stop stop-color="#0975a4" offset="1"/>
</linearGradient>
<linearGradient y1="537.115" id="LinearGradient_5" x1="376.266" y2="537.115" x2="641.635" gradientUnits="userSpaceOnUse" gradientTransform="matrix(0.461619 0 0 0.459489 15.058 34.4499)">
<stop stop-color="#805cb2" offset="0"/>
<stop stop-color="#ec52b1" offset="1"/>
</linearGradient>
<linearGradient y1="391.156" id="LinearGradient_6" x1="400" y2="391.156" x2="600" gradientUnits="userSpaceOnUse" gradientTransform="matrix(0.499999 0 0 0.499997 0 0)">
<stop stop-color="#805cb2" offset="0"/>
<stop stop-color="#ec52b1" offset="1"/>
</linearGradient>
</defs>
<g id="Background" vectornator:layerName="Background">
<path d="M0+0L1760+0L1760+500L0+500L0+0Z" opacity="0" fill="#f8f9fa"/>
<path d="M0+0L1760+0L1760+500L0+500L0+0Z" opacity="0" fill="#212529"/>
<path d="M0+0L1760+0L1760+500L0+500L0+0Z" fill-opacity="0" fill="#ffffff" opacity="1"/>
</g>
<g id="Border Rectangles" vectornator:layerName="Border Rectangles">
<path stroke="#000000" stroke-opacity="0" stroke-width="0.1" d="M250.315+500L0+250.315L62.1838+188.131L312.187+438.129L250.315+500Z" fill="url(#LinearGradient)" stroke-linecap="round" opacity="1" stroke-linejoin="round"/>
<path stroke="#000000" stroke-opacity="0" stroke-width="0.1" d="M0+250.315L250.315+0L312.077+61.8398L61.9612+312.097L0+250.315Z" fill="url(#LinearGradient_2)" stroke-linecap="round" opacity="1" stroke-linejoin="round"/>
<path stroke="#000000" stroke-opacity="0" stroke-width="0.1" d="M250.315+0L500+250.001L437.993+312.008L188.132+62.1943L250.315+0Z" fill="url(#LinearGradient_3)" stroke-linecap="round" opacity="1" stroke-linejoin="round"/>
<path stroke="#000000" stroke-opacity="0" stroke-width="0.1" d="M500+250.001L311.821+438.494L250.124+376.132L438.183+188.106L500+250.001Z" fill="url(#LinearGradient_4)" stroke-linecap="round" opacity="1" stroke-linejoin="round"/>
</g>
<g id="Center Lock" vectornator:layerName="Center Lock">
<path stroke="#000000" stroke-opacity="0" stroke-width="0.1" d="M249.999+219.999C216.172+219.999+188.75+247.421+188.75+281.249C188.75+315.076+216.172+342.498+249.999+342.498C283.827+342.498+311.249+315.076+311.249+281.249C311.249+247.421+283.827+219.999+249.999+219.999ZM250.002+270.999C255.885+270.999+260.654+275.768+260.654+281.651C260.654+285.585+258.5+288.994+255.328+290.838L255.328+308.281L244.675+308.281L244.675+290.838C241.503+288.994+239.349+285.585+239.349+281.651C239.349+275.768+244.119+270.999+250.002+270.999Z" fill="url(#LinearGradient_5)" stroke-linecap="round" opacity="1" stroke-linejoin="round"/>
<path stroke="#000000" stroke-opacity="0" stroke-width="0.1" d="M249.999+154.999C222.385+154.999+199.999+177.385+199.999+204.999L199.999+236.155C205.566+230.228+212.377+225.359+219.999+221.749L219.999+216.155L219.999+200.358L219.999+199.999L220.015+199.999C220.245+186.163+233.574+174.999+249.999+174.999C266.425+174.999+279.754+186.163+279.984+199.999L279.999+199.999L279.999+200.358L279.999+216.155L279.999+221.749C287.622+225.359+294.433+230.228+299.999+236.155L299.999+204.999C299.999+177.385+277.614+154.999+249.999+154.999Z" fill="url(#LinearGradient_6)" stroke-linecap="round" opacity="1" stroke-linejoin="round"/>
</g>
<g id="Privacy Text" vectornator:layerName="Privacy Text">
<path stroke="#ffffff" stroke-opacity="0" stroke-width="0.1" d="M565+0L570+0L570+500L565+500L565+0Z" fill="#805cb2" stroke-linecap="round" opacity="1" stroke-linejoin="round"/>
<g opacity="1">
<path d="M783.102+300.56L787.428+301.64L789.831+301.64C790.872+301.96+791.834+302.28+792.715+302.6C793.516+302.92+794.277+303.22+794.998+303.5C795.719+303.78+796.199+304.04+796.44+304.28C797.641+304.92+799.023+305.46+800.585+305.9C802.147+306.34+803.449+307.12+804.49+308.24C805.131+308.8+805.792+309.76+806.473+311.12C807.154+312.48+807.814+313.44+808.455+314C811.179+316.321+812.921+318.541+813.682+320.661C814.443+322.781+814.824+324.681+814.824+326.361L814.463+334.281L814.463+337.641C814.463+338.521+814.123+339.841+813.442+341.601C812.761+343.361+811.96+345.201+811.039+347.121C810.117+349.041+809.256+350.821+808.455+352.461C807.654+354.101+807.134+355.161+806.893+355.641C806.332+357.321+805.351+358.701+803.949+359.781C802.548+360.861+801.166+361.721+799.804+362.361C797.641+364.041+795.618+365.561+793.736+366.921C791.854+368.281+789.751+368.961+787.428+368.961C786.467+368.961+785.525+368.861+784.604+368.661C783.683+368.461+782.421+368.361+780.819+368.361C780.499+368.361+780.098+368.381+779.618+368.421C779.137+368.461+778.616+368.521+778.056+368.601C777.415+368.681+776.774+368.721+776.133+368.721L774.09+368.721C773.45+368.721+772.628+368.601+771.627+368.361C770.626+368.121+769.685+367.801+768.803+367.401C767.762+367.001+766.641+366.521+765.439+365.961C763.276+365.001+761.073+363.941+758.83+362.781C756.588+361.621+754.785+359.681+753.423+356.961C751.741+352.961+750.199+348.801+748.797+344.481C747.396+340.161+746.695+336.001+746.695+332.001C746.695+331.201+746.775+330.481+746.935+329.841C747.095+329.201+747.295+328.541+747.536+327.861C747.776+327.181+748.056+326.481+748.377+325.761C748.697+325.041+749.018+324.121+749.338+323.001C749.338+321.801+749.518+320.681+749.879+319.641C750.239+318.601+750.74+317.481+751.381+316.281C751.381+316.041+751.741+315.28+752.462+314C753.183+312.72+754.064+311.36+755.106+309.92C756.147+308.48+757.248+307.18+758.41+306.02C759.571+304.86+760.553+304.28+761.354+304.28L764.718+302.96C765.759+302.96+766.701+302.92+767.542+302.84C768.383+302.76+769.244+302.48+770.125+302C771.006+301.6+771.847+301.26+772.648+300.98C773.45+300.7+774.251+300.56+775.052+300.56L780.819+300.56L783.102+300.56ZM772.769+309.92C771.407+309.92+770.045+310.84+768.683+312.68C767.322+314.52+766.1+316.621+765.019+318.981C763.937+321.341+763.056+323.601+762.375+325.761C761.694+327.921+761.354+329.321+761.354+329.961L761.354+332.001L761.354+339.321C761.354+340.441+762.055+342.141+763.456+344.421C764.858+346.701+766.601+348.981+768.683+351.261C770.766+353.541+772.989+355.561+775.352+357.321C777.715+359.081+779.858+359.961+781.78+359.961L784.063+359.961C785.746+359.961+787.568+359.521+789.531+358.641C791.493+357.761+793.295+356.561+794.938+355.041C796.58+353.521+797.962+351.741+799.083+349.701C800.204+347.661+800.765+345.521+800.765+343.281L800.765+339.921L800.765+332.001C800.765+330.321+800.545+328.981+800.104+327.981C799.664+326.981+799.083+326.021+798.362+325.101C797.641+324.181+796.8+323.141+795.839+321.981C794.878+320.821+793.876+319.241+792.835+317.241C792.194+316.761+791.493+316.161+790.732+315.44C789.971+314.72+789.17+314.04+788.329+313.4C787.488+312.76+786.607+312.2+785.685+311.72C784.764+311.24+783.903+311+783.102+311L780.819+311C780.178+311+779.417+310.96+778.536+310.88C777.655+310.8+776.774+310.68+775.893+310.52C774.931+310.36+773.89+310.16+772.769+309.92Z" opacity="1" fill="#0975a4"/>
<path d="M845.824+299.6C846.064+299.6+846.485+299.74+847.086+300.02C847.686+300.3+848.287+300.66+848.888+301.1C849.489+301.54+850.03+302.04+850.51+302.6C850.991+303.16+851.231+303.72+851.231+304.28C850.51+306.04+849.829+307.68+849.188+309.2C848.628+310.56+848.067+311.9+847.506+313.22C846.945+314.54+846.505+315.56+846.184+316.281C845.944+316.601+845.504+317.261+844.863+318.261C844.222+319.261+843.541+320.341+842.82+321.501C842.099+322.661+841.478+323.801+840.958+324.921C840.437+326.041+840.177+326.841+840.177+327.321L841.258+329.001C842.059+329.001+843.281+328.201+844.923+326.601C846.565+325.001+848.307+323.241+850.15+321.321C851.992+319.401+853.794+317.641+855.557+316.041C857.319+314.44+858.761+313.64+859.882+313.64C861.084+313.64+862.005+314.26+862.646+315.5C863.287+316.741+863.787+318.121+864.148+319.641C864.508+321.161+864.729+322.601+864.809+323.961C864.889+325.321+864.929+326.121+864.929+326.361C864.929+326.841+864.749+327.781+864.388+329.181C864.028+330.581+863.767+331.841+863.607+332.961C863.287+333.201+863.127+333.461+863.127+333.741C863.127+334.021+863.167+334.241+863.247+334.401C863.327+334.641+863.447+334.841+863.607+335.001C863.527+335.881+863.187+337.141+862.586+338.781C861.985+340.421+861.324+342.041+860.603+343.641C859.882+345.241+859.201+346.701+858.561+348.021C857.92+349.341+857.479+350.121+857.239+350.361C856.358+351.721+855.417+352.921+854.415+353.961C853.414+355.001+852.353+356.001+851.231+356.961C850.11+358.001+848.748+359.021+847.146+360.021C845.544+361.021+844.222+362.361+843.181+364.041C841.979+365.161+840.717+366.121+839.396+366.921C838.074+367.721+836.852+368.581+835.731+369.501C834.609+370.421+833.728+371.461+833.087+372.621C832.447+373.781+832.246+375.241+832.487+377.001L832.487+379.401C832.407+380.521+832.286+381.461+832.126+382.221C831.966+382.981+831.786+383.781+831.585+384.621C831.385+385.461+831.205+386.401+831.045+387.441C830.885+388.481+830.804+389.881+830.804+391.641C830.724+393.081+830.624+394.201+830.504+395.001C830.384+395.801+830.224+396.441+830.023+396.921C829.823+397.401+829.643+397.801+829.483+398.121C829.322+398.441+829.202+398.841+829.122+399.321C829.122+399.961+829.122+400.821+829.122+401.901C829.122+402.981+829.042+404.361+828.882+406.041L828.882+408.681C828.882+410.361+829.302+411.341+830.144+411.621C830.985+411.901+832.006+412.041+833.208+412.041L835.491+412.041C836.692+412.041+837.713+412.581+838.555+413.661C839.396+414.741+839.816+415.881+839.816+417.081C839.816+417.561+839.516+418.041+838.915+418.521C838.314+419.001+837.533+419.521+836.572+420.081C835.37+420.081+834.149+420.441+832.907+421.161C831.666+421.881+830.204+422.161+828.521+422.001L823.835+422.001C822.153+422.401+820.431+422.661+818.669+422.781C816.906+422.901+815.184+423.201+813.502+423.681C812.621+423.601+811.96+423.601+811.519+423.681C811.079+423.761+810.678+423.881+810.318+424.041C809.957+424.201+809.597+424.361+809.236+424.521C808.876+424.681+808.415+424.761+807.854+424.761C807.374+424.681+806.913+424.441+806.473+424.041C806.032+423.641+805.672+423.181+805.391+422.661C805.111+422.141+804.891+421.641+804.73+421.161C804.57+420.681+804.49+420.321+804.49+420.081C804.57+419.121+804.871+418.421+805.391+417.981C805.912+417.541+806.533+417.221+807.254+417.021C807.975+416.821+808.716+416.721+809.477+416.721C810.238+416.721+810.898+416.721+811.459+416.721C811.78+416.481+812.16+416.301+812.601+416.181C813.041+416.061+813.442+415.901+813.802+415.701C814.163+415.501+814.483+415.261+814.763+414.981C815.044+414.701+815.184+414.281+815.184+413.721C815.424+413.161+815.685+412.401+815.965+411.441C816.245+410.481+816.506+409.561+816.746+408.681C816.986+407.801+817.207+406.981+817.407+406.221C817.607+405.461+817.747+404.961+817.827+404.721L817.827+403.641C817.827+403.321+817.948+402.501+818.188+401.181C818.428+399.861+818.749+398.481+819.149+397.041C819.47+395.361+819.91+393.481+820.471+391.401C820.631+390.921+820.831+390.481+821.072+390.081C821.232+389.681+821.392+389.301+821.552+388.941C821.713+388.581+821.793+388.281+821.793+388.041C821.793+387.481+821.853+386.541+821.973+385.221C822.093+383.901+822.153+381.721+822.153+378.681L823.475+375.321L824.797+367.641L825.157+364.281C825.157+364.041+825.277+363.661+825.518+363.141C825.758+362.621+826.038+362.041+826.359+361.401C826.679+360.761+826.959+360.081+827.2+359.361C827.44+358.641+827.56+357.961+827.56+357.321C827.64+356.201+827.7+355.161+827.74+354.201C827.78+353.241+827.841+352.321+827.921+351.441C828.001+350.561+828.081+349.641+828.161+348.681C828.401+347.561+828.682+346.481+829.002+345.441C829.242+344.561+829.483+343.681+829.723+342.801C829.963+341.921+830.244+341.201+830.564+340.641L830.804+333.921C830.804+332.401+830.043+331.641+828.521+331.641C827.881+331.641+827.26+331.921+826.659+332.481C826.058+333.041+825.357+333.641+824.556+334.281C822.794+336.041+821.432+336.921+820.471+336.921C820.07+336.841+819.83+336.741+819.75+336.621C819.67+336.501+819.59+336.361+819.51+336.201C819.43+336.041+819.43+335.841+819.51+335.601C819.51+334.001+820.03+332.541+821.072+331.221C822.113+329.901+823.154+328.481+824.196+326.961C825.397+324.721+826.839+322.561+828.521+320.481C830.204+318.401+831.926+316.301+833.688+314.18C835.45+312.06+837.113+309.9+838.675+307.7C840.237+305.5+841.538+303.12+842.58+300.56C842.98+300.4+843.341+300.24+843.661+300.08C844.462+299.76+845.183+299.6+845.824+299.6ZM850.27+331.281C849.629+331.281+848.848+331.561+847.927+332.121C847.006+332.681+846.084+333.341+845.163+334.101C844.242+334.861+843.461+335.581+842.82+336.261C842.179+336.941+841.859+337.401+841.859+337.641C840.737+339.961+839.836+342.061+839.155+343.941C838.474+345.821+837.693+347.841+836.812+350.001L836.812+353.361C836.812+354.001+836.952+354.721+837.233+355.521C837.513+356.321+838.494+356.801+840.177+356.961C840.657+356.961+841.358+356.641+842.279+356.001C843.201+355.361+844.102+354.601+844.983+353.721C846.024+352.761+847.106+351.641+848.227+350.361C848.868+349.961+849.469+349.461+850.03+348.861C850.59+348.261+851.231+347.641+851.952+347.001C852.433+345.961+852.713+345.261+852.793+344.901C852.873+344.541+852.913+343.801+852.913+342.681C852.913+342.441+852.873+342.141+852.793+341.781C852.713+341.421+852.633+341.041+852.553+340.641C852.393+340.241+852.272+339.801+852.192+339.321L852.192+336.921C852.192+336.681+852.192+336.261+852.192+335.661C852.192+335.061+852.152+334.461+852.072+333.861C851.992+333.261+851.812+332.701+851.531+332.181C851.251+331.661+850.831+331.361+850.27+331.281Z" opacity="1" fill="#0975a4"/>
<path d="M894.367+311C896.05+311+897.471+311.3+898.633+311.9C899.795+312.5+900.736+313.32+901.457+314.36C902.178+315.4+902.698+316.601+903.019+317.961C903.339+319.321+903.459+320.761+903.379+322.281C903.379+324.441+902.578+326.181+900.976+327.501C899.374+328.821+897.732+329.961+896.05+330.921C894.528+331.961+892.906+332.881+891.183+333.681C889.461+334.481+887.859+335.361+886.377+336.321C884.895+337.281+883.653+338.401+882.652+339.681C881.651+340.961+881.11+342.601+881.03+344.601L881.03+349.641C880.87+351.001+881.15+352.341+881.871+353.661C882.592+354.981+883.513+355.641+884.635+355.641C884.715+355.721+885.035+355.601+885.596+355.281C886.157+354.961+886.778+354.581+887.458+354.141C888.139+353.701+888.82+353.241+889.501+352.761C890.182+352.281+890.683+351.921+891.003+351.681C892.205+351.121+893.146+350.661+893.827+350.301C894.508+349.941+895.008+349.841+895.329+350.001C895.889+350.001+896.37+350.081+896.771+350.241C897.171+350.401+897.371+351.001+897.371+352.041C897.211+353.801+896.45+355.501+895.088+357.141C893.727+358.781+892.245+360.301+890.643+361.701C889.04+363.101+887.478+364.321+885.956+365.361C884.434+366.401+883.433+367.161+882.953+367.641C881.591+368.841+880.329+369.481+879.168+369.561C878.006+369.641+876.825+369.681+875.623+369.681C874.902+369.601+874.161+369.281+873.4+368.721C872.639+368.161+871.958+367.501+871.357+366.741C870.757+365.981+870.296+365.201+869.976+364.401C869.655+363.601+869.535+362.921+869.615+362.361L869.615+360.321C869.615+359.761+869.455+359.161+869.134+358.521C868.974+358.201+868.814+357.921+868.654+357.681L869.014+355.281L869.014+353.361C869.014+353.041+869.094+352.181+869.255+350.781C869.415+349.381+869.615+347.861+869.855+346.221C870.096+344.581+870.316+343.021+870.516+341.541C870.717+340.061+870.857+339.081+870.937+338.601C871.257+338.361+871.417+338.121+871.417+337.881C871.417+337.641+871.377+337.401+871.297+337.161C871.217+336.921+871.177+336.621+871.177+336.261C871.177+335.901+871.337+335.481+871.658+335.001C871.658+334.041+871.858+333.041+872.259+332.001C872.499+331.441+872.739+330.881+872.979+330.321L874.662+326.361C874.822+324.601+875.663+322.781+877.185+320.901C878.707+319.021+880.489+317.321+882.532+315.801C884.575+314.28+886.677+313.06+888.84+312.14C891.003+311.22+892.845+310.84+894.367+311ZM888.96+320.001C888.56+320.001+888.159+320.301+887.759+320.901C887.358+321.501+886.958+322.161+886.557+322.881C886.157+323.761+885.756+324.681+885.356+325.641C885.276+326.041+885.155+326.501+884.995+327.021C884.835+327.541+884.715+328.021+884.635+328.461C884.555+328.901+884.595+329.261+884.755+329.541C884.915+329.821+885.235+329.961+885.716+329.961C886.117+330.041+886.717+329.961+887.518+329.721C888.32+329.481+889.141+329.121+889.982+328.641C890.823+328.161+891.584+327.581+892.265+326.901C892.946+326.221+893.326+325.481+893.406+324.681L893.406+322.641C893.406+322.241+893.286+321.881+893.046+321.561C892.805+321.241+892.525+321.001+892.205+320.841C891.884+320.601+891.484+320.401+891.003+320.241L888.96+320.001Z" opacity="1" fill="#0975a4"/>
<path d="M925.128+312.32C926.009+312.32+926.69+312.6+927.17+313.16C927.651+313.72+928.091+314.32+928.492+314.96C928.732+315.52+928.812+316.281+928.732+317.241C928.652+318.201+928.512+319.161+928.312+320.121C928.111+321.081+927.911+322.001+927.711+322.881C927.511+323.761+927.411+324.361+927.411+324.681L927.771+326.601L929.093+329.001C929.413+329.001+930.034+328.541+930.955+327.621C931.876+326.701+932.958+325.561+934.199+324.201C935.441+322.841+936.743+321.381+938.105+319.821C939.466+318.261+940.788+316.801+942.07+315.44C943.351+314.08+944.513+312.94+945.554+312.02C946.596+311.1+947.357+310.64+947.837+310.64C948.478+310.64+949.019+311.04+949.459+311.84C949.9+312.64+950.32+313.48+950.721+314.36C951.122+315.4+951.482+316.601+951.802+317.961C951.883+319.081+951.802+320.641+951.562+322.641C951.322+324.641+950.941+326.821+950.421+329.181C949.9+331.541+949.339+333.941+948.738+336.381C948.138+338.821+947.577+341.061+947.056+343.101C946.536+345.141+946.095+346.841+945.734+348.201C945.374+349.561+945.194+350.281+945.194+350.361C945.194+350.681+945.154+351.061+945.074+351.501C944.994+351.941+944.953+352.341+944.953+352.701C944.953+353.061+945.054+353.361+945.254+353.601C945.454+353.841+945.875+353.961+946.516+353.961C946.996+353.641+947.477+353.321+947.957+353.001C948.358+352.681+948.798+352.361+949.279+352.041C949.76+351.721+950.28+351.361+950.841+350.961C952.203+350.081+953.465+349.261+954.626+348.501C955.788+347.741+956.529+347.361+956.849+347.361C957.33+347.361+957.85+347.621+958.411+348.141C958.972+348.661+959.252+349.161+959.252+349.641C959.252+349.801+958.992+350.241+958.471+350.961C957.95+351.681+957.33+352.441+956.609+353.241C955.888+354.041+955.167+354.761+954.446+355.401C953.725+356.041+953.204+356.361+952.884+356.361C952.884+357.001+952.664+357.601+952.223+358.161C951.782+358.721+951.322+359.001+950.841+359.001C949.559+360.361+948.478+361.681+947.597+362.961C946.716+364.241+945.835+365.421+944.953+366.501C944.072+367.581+943.111+368.441+942.07+369.081C941.028+369.721+939.707+370.041+938.105+370.041C937.544+370.041+936.963+369.841+936.362+369.441C935.761+369.041+935.221+368.541+934.74+367.941C934.26+367.341+933.879+366.701+933.599+366.021C933.318+365.341+933.178+364.761+933.178+364.281L932.818+359.961C933.298+357.801+933.919+355.481+934.68+353.001C935.441+350.521+936.142+348.201+936.783+346.041C937.424+344.201+937.944+342.441+938.345+340.761C938.745+339.081+939.026+337.481+939.186+335.961L939.186+334.641C938.866+332.401+938.064+331.281+936.783+331.281C934.86+331.281+933.338+331.701+932.217+332.541C931.095+333.381+930.174+334.461+929.453+335.781C928.732+337.101+928.111+338.521+927.591+340.041C927.07+341.561+926.489+343.001+925.849+344.361C925.448+344.841+925.188+345.301+925.068+345.741C924.947+346.181+924.967+346.721+925.128+347.361C924.967+348.321+924.787+349.281+924.587+350.241C924.387+351.201+924.126+352.121+923.806+353.001C922.925+355.561+922.084+358.101+921.283+360.621C920.482+363.141+919.761+365.481+919.12+367.641C919.52+368.281+919.46+368.661+918.94+368.781C918.419+368.901+917.918+368.961+917.438+368.961C916.957+368.961+916.276+368.941+915.395+368.901C914.514+368.861+913.653+368.721+912.811+368.481C911.97+368.241+911.209+367.881+910.529+367.401C909.848+366.921+909.467+366.241+909.387+365.361C909.227+364.001+909.387+362.581+909.868+361.101C910.348+359.621+910.889+358.241+911.49+356.961C912.091+355.681+912.671+354.561+913.232+353.601C913.793+352.641+914.073+352.001+914.073+351.681L914.073+349.641L914.073+347.361L913.472+345.321C913.472+344.841+913.633+344.221+913.953+343.461C914.273+342.701+914.614+341.941+914.974+341.181C915.335+340.421+915.675+339.721+915.996+339.081C916.316+338.441+916.476+337.961+916.476+337.641L916.476+335.961L916.116+331.281C916.116+330.801+916.056+330.301+915.936+329.781C915.815+329.261+915.435+329.001+914.794+329.001C914.313+329.001+913.773+329.121+913.172+329.361C912.571+329.601+911.97+329.861+911.37+330.141C910.769+330.421+910.208+330.681+909.687+330.921C909.167+331.161+908.746+331.281+908.426+331.281L907.465+331.281C906.904+330.961+906.764+330.341+907.044+329.421C907.324+328.501+907.465+327.801+907.465+327.321C909.467+324.521+911.41+322.061+913.292+319.941C915.175+317.821+917.438+315.921+920.081+314.24C920.642+313.92+921.403+313.52+922.364+313.04C923.325+312.56+924.246+312.32+925.128+312.32Z" opacity="1" fill="#0975a4"/>
<path d="M1006.59+311C1006.59+309.72+1006.81+308.62+1007.25+307.7C1007.7+306.78+1008.3+305.96+1009.06+305.24C1009.82+304.52+1010.68+303.84+1011.64+303.2C1012.6+302.56+1013.6+301.92+1014.64+301.28C1016.81+299.92+1018.79+298.8+1020.59+297.92C1022.39+297.04+1024.62+296.6+1027.26+296.6C1028.94+296.6+1030.43+296.62+1031.71+296.66C1032.99+296.7+1034.31+297.24+1035.67+298.28C1036.79+299.16+1037.57+300.12+1038.01+301.16C1038.46+302.2+1038.68+303.48+1038.68+305C1038.68+305.8+1038.54+306.64+1038.26+307.52C1037.97+308.4+1037.57+309.2+1037.05+309.92C1036.53+310.64+1035.89+311.22+1035.13+311.66C1034.37+312.1+1033.55+312.32+1032.67+312.32C1031.79+312.32+1031.09+312.1+1030.57+311.66C1030.04+311.22+1029.56+310.76+1029.12+310.28C1028.68+309.8+1028.2+309.34+1027.68+308.9C1027.16+308.46+1026.5+308.24+1025.7+308.24C1024.66+308.24+1023.6+308.34+1022.51+308.54C1021.43+308.74+1020.45+309.08+1019.57+309.56C1018.69+310.04+1017.97+310.64+1017.41+311.36C1016.85+312.08+1016.57+312.96+1016.57+314C1016.57+314.96+1016.89+315.641+1017.53+316.041C1018.17+316.441+1018.95+316.721+1019.87+316.881C1020.79+317.041+1021.77+317.201+1022.82+317.361C1023.86+317.521+1024.82+317.841+1025.7+318.321C1027.86+319.441+1029.72+320.441+1031.29+321.321C1032.85+322.201+1034.63+323.321+1036.63+324.681C1037.35+325.081+1037.99+325.421+1038.56+325.701C1039.12+325.981+1039.66+326.241+1040.18+326.481C1040.7+326.721+1041.24+327.001+1041.8+327.321C1042.36+327.641+1043+328.081+1043.72+328.641C1046.05+330.481+1047.91+332.341+1049.31+334.221C1050.71+336.101+1051.41+338.561+1051.41+341.601L1051.41+344.361C1051.41+345.321+1051.57+346.181+1051.89+346.941C1052.21+347.701+1052.37+348.601+1052.37+349.641C1052.37+351.321+1052.03+352.681+1051.35+353.721C1050.67+354.761+1050.01+355.961+1049.37+357.321C1049.21+357.961+1049.21+358.501+1049.37+358.941C1049.53+359.381+1049.41+359.841+1049.01+360.321C1048.69+361.361+1048.17+362.041+1047.45+362.361C1046.73+362.681+1046.05+363.241+1045.4+364.041C1044.68+364.681+1044+365.241+1043.36+365.721C1042.72+366.201+1042.08+366.661+1041.44+367.101C1040.8+367.541+1040.14+367.961+1039.46+368.361C1038.78+368.761+1037.95+369.201+1036.99+369.681C1035.47+370.561+1034.11+371.181+1032.91+371.541C1031.71+371.901+1030.3+372.281+1028.7+372.681C1028.14+372.841+1027.66+373.101+1027.26+373.461C1026.86+373.821+1026.34+374.001+1025.7+374.001C1024.98+374.001+1024.42+373.941+1024.02+373.821C1023.62+373.701+1023.18+373.641+1022.69+373.641C1021.49+373.641+1020.55+373.761+1019.87+374.001C1019.19+374.241+1018.33+374.361+1017.29+374.361C1016.65+374.361+1016.15+374.221+1015.79+373.941C1015.43+373.661+1014.92+373.441+1014.28+373.281C1013.4+372.961+1012.62+372.821+1011.94+372.861C1011.26+372.901+1010.48+372.841+1009.6+372.681C1008.72+372.681+1008+372.421+1007.44+371.901C1006.87+371.381+1006.15+370.841+1005.27+370.281C1004.39+369.801+1003.55+369.461+1002.75+369.261C1001.95+369.061+1001.11+368.521+1000.23+367.641C999.344+367.161+998.864+366.541+998.784+365.781C998.704+365.021+998.423+364.201+997.943+363.321C997.302+361.961+996.741+360.901+996.26+360.141C995.78+359.381+995.54+358.201+995.54+356.601C995.54+354.281+996.421+352.261+998.183+350.541C999.945+348.821+1002.07+347.961+1004.55+347.961C1006.07+347.961+1007.52+348.301+1008.88+348.981C1010.24+349.661+1010.92+350.681+1010.92+352.041C1010.92+352.521+1010.86+352.881+1010.74+353.121C1010.62+353.361+1010.56+353.641+1010.56+353.961C1010.56+354.521+1010.68+354.961+1010.92+355.281C1011.16+355.601+1011.28+355.961+1011.28+356.361C1011.28+356.521+1011.22+356.741+1011.1+357.021C1010.98+357.301+1010.92+357.521+1010.92+357.681C1010.92+358.881+1011.24+359.901+1011.88+360.741C1012.52+361.581+1013.34+362.301+1014.34+362.901C1015.35+363.501+1016.49+363.941+1017.77+364.221C1019.05+364.501+1020.33+364.641+1021.61+364.641C1024.18+364.641+1026.52+364.041+1028.64+362.841C1030.77+361.641+1032.67+360.041+1034.35+358.041C1035.31+357.001+1036.11+355.921+1036.75+354.801C1037.39+353.681+1037.71+352.281+1037.71+350.601C1037.71+349.641+1037.47+348.741+1036.99+347.901C1036.51+347.061+1036.27+346.201+1036.27+345.321C1036.27+344.921+1036.33+344.701+1036.45+344.661C1036.57+344.621+1036.63+344.521+1036.63+344.361C1036.63+343.081+1036.29+342.021+1035.61+341.181C1034.93+340.341+1034.07+339.601+1033.03+338.961C1031.99+338.321+1030.85+337.721+1029.6+337.161C1028.36+336.601+1027.14+336.001+1025.94+335.361C1025.62+335.201+1025.36+334.921+1025.16+334.521C1024.96+334.121+1024.66+333.841+1024.26+333.681C1023.46+333.281+1022.65+333.061+1021.85+333.021C1021.05+332.981+1020.29+332.641+1019.57+332.001C1018.93+331.601+1018.49+331.181+1018.25+330.741C1018.01+330.301+1017.57+329.841+1016.93+329.361C1016.05+328.961+1015.27+328.741+1014.58+328.701C1013.9+328.661+1013.12+328.321+1012.24+327.681C1011.76+327.121+1011.34+326.641+1010.98+326.241C1010.62+325.841+1010.28+325.321+1009.96+324.681C1009.32+323.881+1008.54+323.241+1007.62+322.761C1006.69+322.281+1006.23+321.441+1006.23+320.241L1006.23+317.241C1006.23+316.761+1006.19+316.281+1006.11+315.801C1006.03+315.32+1005.99+314.8+1005.99+314.24C1005.99+313.92+1006.03+313.66+1006.11+313.46C1006.19+313.26+1006.23+313+1006.23+312.68C1006.23+312.28+1006.29+311.94+1006.41+311.66C1006.53+311.38+1006.59+311.16+1006.59+311Z" opacity="1" fill="#0975a4"/>
<path d="M1083.13+311C1084.26+311+1085.64+311.04+1087.28+311.12C1088.92+311.2+1090.3+311.48+1091.42+311.96C1092.63+311.96+1093.41+312.44+1093.77+313.4C1094.13+314.36+1094.59+315.44+1095.15+316.641C1095.47+316.961+1095.85+317.401+1096.29+317.961C1096.73+318.521+1097.13+319.101+1097.49+319.701C1097.85+320.301+1098.15+320.921+1098.39+321.561C1098.63+322.201+1098.75+322.761+1098.75+323.241L1097.79+333.921C1097.79+336.161+1097.31+338.641+1096.35+341.361C1095.39+344.081+1093.99+346.521+1092.15+348.681C1091.5+349.321+1091.04+350.021+1090.76+350.781C1090.48+351.541+1090.2+352.321+1089.92+353.121C1089.64+353.921+1089.32+354.741+1088.96+355.581C1088.6+356.421+1088.1+357.241+1087.46+358.041C1086.98+358.601+1086.44+359.281+1085.84+360.081C1085.24+360.881+1084.6+361.701+1083.91+362.541C1083.23+363.381+1082.51+364.141+1081.75+364.821C1080.99+365.501+1080.21+366.001+1079.41+366.321C1078.21+366.961+1077.21+367.521+1076.41+368.001C1075.6+368.481+1074.88+368.881+1074.24+369.201C1073.6+369.521+1072.94+369.741+1072.26+369.861C1071.58+369.981+1070.84+370.041+1070.04+370.041C1068.84+370.041+1067.71+369.761+1066.67+369.201C1065.63+368.641+1064.73+367.901+1063.97+366.981C1063.21+366.061+1062.59+365.021+1062.11+363.861C1061.63+362.701+1061.39+361.521+1061.39+360.321L1061.39+352.281C1061.39+351.801+1061.23+351.361+1060.9+350.961C1060.58+350.561+1060.42+349.441+1060.42+347.601C1060.34+345.281+1060.9+342.481+1062.11+339.201C1063.31+335.921+1064.73+332.701+1066.37+329.541C1068.01+326.381+1069.66+323.581+1071.3+321.141C1072.94+318.701+1074.2+317.201+1075.08+316.641C1075.96+316.081+1076.71+315.46+1077.31+314.78C1077.91+314.1+1078.49+313.48+1079.05+312.92C1079.61+312.36+1080.19+311.9+1080.79+311.54C1081.39+311.18+1082.17+311+1083.13+311ZM1083.73+324.681C1082.45+324.681+1081.15+325.221+1079.83+326.301C1078.51+327.381+1077.29+328.621+1076.16+330.021C1075.04+331.421+1074.04+332.821+1073.16+334.221C1072.28+335.621+1071.68+336.641+1071.36+337.281L1070.16+341.841C1069.84+342.961+1069.58+344.041+1069.38+345.081C1069.18+346.121+1069.08+346.761+1069.08+347.001L1069.08+349.281C1069.4+349.521+1069.68+350.001+1069.92+350.721C1070.16+351.441+1070.46+352.161+1070.82+352.881C1071.18+353.601+1071.6+354.241+1072.08+354.801C1072.56+355.361+1073.24+355.641+1074.12+355.641C1075.72+354.921+1077.21+354.201+1078.57+353.481C1079.69+352.841+1080.79+352.161+1081.87+351.441C1082.95+350.721+1083.69+350.001+1084.1+349.281C1084.58+348.161+1085.12+346.841+1085.72+345.321C1086.32+343.801+1086.9+342.361+1087.46+341.001C1087.3+340.361+1087.48+339.721+1088+339.081C1088.52+338.441+1088.78+337.841+1088.78+337.281L1088.78+333.921C1088.78+333.521+1088.68+332.821+1088.48+331.821C1088.28+330.821+1087.96+329.781+1087.52+328.701C1087.08+327.621+1086.54+326.681+1085.9+325.881C1085.26+325.081+1084.54+324.681+1083.73+324.681Z" opacity="1" fill="#0975a4"/>
<path d="M1125.79+311.6C1126.51+311.6+1127.03+312+1127.35+312.8C1127.67+313.6+1127.83+314.32+1127.83+314.96C1126.39+320.001+1125.11+324.601+1123.99+328.761C1123.51+330.521+1123.03+332.261+1122.55+333.981C1122.06+335.701+1121.64+337.281+1121.28+338.721C1120.92+340.161+1120.64+341.381+1120.44+342.381C1120.24+343.381+1120.14+344.041+1120.14+344.361C1120.14+344.921+1120.04+345.841+1119.84+347.121C1119.64+348.401+1119.64+349.581+1119.84+350.661C1120.04+351.741+1120.56+352.461+1121.4+352.821C1122.24+353.181+1123.71+352.681+1125.79+351.321C1125.95+350.921+1126.47+350.401+1127.35+349.761C1128.23+349.121+1129.19+348.321+1130.24+347.361C1130.88+346.721+1131.28+346.061+1131.44+345.381C1131.6+344.701+1131.84+344.361+1132.16+344.361C1132.16+343.721+1132.44+343.121+1133+342.561C1133.56+342.001+1133.84+341.481+1133.84+341.001C1134+340.441+1134.44+339.401+1135.16+337.881C1135.88+336.361+1136.68+334.521+1137.56+332.361C1138.29+330.841+1138.97+329.201+1139.61+327.441C1140.25+325.681+1140.81+323.961+1141.29+322.281C1141.77+320.601+1142.15+319.061+1142.43+317.661C1142.71+316.261+1142.85+315.12+1142.85+314.24C1142.85+313.36+1143.05+312.68+1143.45+312.2C1143.85+311.72+1144.35+311.36+1144.95+311.12C1145.56+310.88+1146.18+310.74+1146.82+310.7C1147.46+310.66+1148.02+310.64+1148.5+310.64L1151.26+310.64C1152.22+310.64+1153.01+311.12+1153.61+312.08C1154.21+313.04+1154.51+314.12+1154.51+315.32C1154.51+315.56+1154.41+316.301+1154.21+317.541C1154.01+318.781+1153.77+320.201+1153.49+321.801C1153.21+323.401+1152.86+325.041+1152.46+326.721C1152.06+328.401+1151.66+329.801+1151.26+330.921C1149.58+334.521+1147.94+338.101+1146.34+341.661C1144.73+345.221+1143.93+348.681+1143.93+352.041C1143.93+352.441+1144.09+352.881+1144.41+353.361C1144.57+353.601+1144.73+353.801+1144.89+353.961C1145.94+353.961+1147+353.641+1148.08+353.001C1149.16+352.361+1150.12+351.681+1150.96+350.961C1151.8+350.241+1152.54+349.561+1153.19+348.921C1153.83+348.281+1154.27+347.961+1154.51+347.961C1154.75+347.961+1155.01+348.081+1155.29+348.321C1155.57+348.561+1155.83+348.801+1156.07+349.041C1156.39+349.361+1156.67+349.681+1156.91+350.001C1156.91+350.321+1156.53+351.101+1155.77+352.341C1155.01+353.581+1154.13+354.901+1153.13+356.301C1152.12+357.701+1151.16+359.001+1150.24+360.201C1149.32+361.401+1148.74+362.121+1148.5+362.361C1147.7+362.921+1147+363.421+1146.4+363.861C1145.8+364.301+1145.26+364.741+1144.77+365.181C1144.29+365.621+1143.79+366.141+1143.27+366.741C1142.75+367.341+1142.17+368.081+1141.53+368.961C1140.49+370.001+1139.41+370.721+1138.29+371.121C1137.16+371.521+1136+371.721+1134.8+371.721C1134.24+371.721+1133.7+371.541+1133.18+371.181C1132.66+370.821+1132.2+370.381+1131.8+369.861C1131.4+369.341+1131.08+368.781+1130.84+368.181C1130.6+367.581+1130.48+367.081+1130.48+366.681L1130.48+364.641L1130.48+363.321C1130.8+362.361+1131.12+361.401+1131.44+360.441C1131.68+359.641+1131.92+358.801+1132.16+357.921C1132.4+357.041+1132.52+356.281+1132.52+355.641C1132.52+355.161+1132.46+354.661+1132.34+354.141C1132.22+353.621+1131.84+353.361+1131.2+353.361C1130.72+353.361+1130.16+353.661+1129.51+354.261C1128.87+354.861+1128.23+355.541+1127.59+356.301C1126.95+357.061+1126.35+357.801+1125.79+358.521C1125.23+359.241+1124.79+359.721+1124.47+359.961C1123.99+360.601+1123.11+361.581+1121.82+362.901C1120.54+364.221+1119.18+365.541+1117.74+366.861C1116.3+368.181+1114.92+369.361+1113.59+370.401C1112.27+371.441+1111.33+371.961+1110.77+371.961C1110.29+371.961+1109.81+371.741+1109.33+371.301C1108.85+370.861+1108.43+370.341+1108.07+369.741C1107.71+369.141+1107.41+368.541+1107.17+367.941C1106.92+367.341+1106.8+366.921+1106.8+366.681L1106.8+363.321C1106.8+362.681+1106.84+362.041+1106.92+361.401C1107.01+360.841+1107.07+360.281+1107.11+359.721C1107.15+359.161+1107.17+358.681+1107.17+358.281C1107.17+357.801+1107.27+357.141+1107.47+356.301C1107.67+355.461+1107.77+354.481+1107.77+353.361C1107.77+352.321+1107.91+351.241+1108.19+350.121C1108.47+349.001+1108.69+348.161+1108.85+347.601L1109.81+343.041C1109.97+342.481+1110.39+341.521+1111.07+340.161C1111.75+338.801+1112.09+336.961+1112.09+334.641C1112.09+333.521+1112.13+332.741+1112.21+332.301C1112.29+331.861+1111.81+331.641+1110.77+331.641C1110.29+331.641+1109.79+331.721+1109.27+331.881C1108.75+332.041+1108.05+332.281+1107.17+332.601C1106.52+333.001+1105.88+333.321+1105.24+333.561C1104.6+333.801+1104.12+333.921+1103.8+333.921C1103.32+333.921+1102.8+333.621+1102.24+333.021C1101.68+332.421+1101.4+331.641+1101.4+330.681C1101.4+329.721+1101.64+328.981+1102.12+328.461C1102.6+327.941+1103.18+327.501+1103.86+327.141C1104.54+326.781+1105.2+326.421+1105.84+326.061C1106.48+325.701+1106.92+325.241+1107.17+324.681C1108.21+323.881+1109.45+322.741+1110.89+321.261C1112.33+319.781+1113.81+318.321+1115.34+316.881C1116.86+315.44+1118.32+314.2+1119.72+313.16C1121.12+312.12+1122.39+311.6+1123.51+311.6L1125.79+311.6Z" opacity="1" fill="#0975a4"/>
<path d="M1179.02+310.28C1179.9+310.12+1180.48+310.24+1180.76+310.64C1181.04+311.04+1181.7+311.48+1182.74+311.96C1183.63+312.44+1184.39+313+1185.03+313.64C1185.67+314.28+1185.99+315.04+1185.99+315.921C1185.91+316.321+1185.83+316.761+1185.75+317.241C1185.59+318.281+1185.67+319.281+1185.99+320.241C1185.99+320.961+1185.85+321.821+1185.57+322.821C1185.29+323.821+1185.23+324.641+1185.39+325.281C1185.55+325.601+1185.79+325.921+1186.11+326.241C1186.35+326.481+1186.61+326.701+1186.89+326.901C1187.17+327.101+1187.43+327.121+1187.67+326.961C1188.47+326.801+1189.33+326.041+1190.25+324.681C1191.17+323.321+1192.08+321.801+1192.96+320.121C1193.84+318.441+1194.72+316.801+1195.6+315.2C1196.48+313.6+1197.28+312.52+1198+311.96L1201.73+311C1202.21+310.84+1202.75+310.8+1203.35+310.88C1203.95+310.96+1204.41+311+1204.73+311C1206.25+311.88+1207.22+313.1+1207.62+314.66C1208.02+316.221+1208.3+317.441+1208.46+318.321C1208.54+319.441+1208.16+320.921+1207.32+322.761C1206.47+324.601+1205.41+326.121+1204.13+327.321C1203.57+327.641+1203.05+327.901+1202.57+328.101C1202.09+328.301+1201.61+328.481+1201.13+328.641C1200.73+328.641+1200.43+328.621+1200.23+328.581C1200.03+328.541+1199.77+328.441+1199.45+328.281C1199.05+328.121+1198.66+328.021+1198.3+327.981C1197.94+327.941+1197.52+327.921+1197.04+327.921C1196+327.921+1195.02+328.321+1194.1+329.121C1193.18+329.921+1192.28+330.761+1191.4+331.641C1190.03+333.321+1188.97+335.221+1188.21+337.341C1187.45+339.461+1187.07+341.441+1187.07+343.281C1186.51+343.841+1185.85+344.541+1185.09+345.381C1184.33+346.221+1183.75+347.201+1183.34+348.321C1182.86+349.441+1182.64+350.601+1182.68+351.801C1182.72+353.001+1182.5+354.161+1182.02+355.281C1182.1+356.241+1182.1+357.341+1182.02+358.581C1181.94+359.821+1181.8+361.121+1181.6+362.481C1181.4+363.841+1181.14+365.141+1180.82+366.381C1180.5+367.621+1180.14+368.721+1179.74+369.681C1179.18+370.081+1178.5+370.441+1177.7+370.761C1176.9+371.081+1176.06+371.321+1175.17+371.481C1174.21+371.721+1173.17+371.881+1172.05+371.961C1171.65+371.961+1171.13+371.641+1170.49+371.001C1170.17+370.681+1169.89+370.361+1169.65+370.041L1167.96+366.681C1167.88+366.121+1167.96+365.161+1168.2+363.801C1168.45+362.441+1168.73+361.061+1169.05+359.661C1169.37+358.261+1169.67+357.001+1169.95+355.881C1170.23+354.761+1170.37+354.121+1170.37+353.961C1172.13+351.321+1173.29+348.541+1173.85+345.621C1174.41+342.701+1175.01+339.801+1175.65+336.921L1174.69+329.001C1174.29+327.961+1173.79+327.441+1173.19+327.441C1172.59+327.441+1171.97+327.521+1171.33+327.681C1170.05+327.921+1169.13+328.261+1168.57+328.701C1168+329.141+1167.52+329.601+1167.12+330.081C1166.72+330.561+1166.28+331.021+1165.8+331.461C1165.32+331.901+1164.48+332.201+1163.28+332.361C1162.64+332.361+1162.24+331.961+1162.08+331.161C1161.92+330.361+1161.76+329.641+1161.6+329.001C1161.44+328.281+1161.56+327.581+1161.96+326.901C1162.36+326.221+1162.9+325.581+1163.58+324.981C1164.26+324.381+1165.04+323.781+1165.92+323.181C1166.8+322.581+1167.6+321.961+1168.33+321.321C1169.29+320.281+1170.13+319.141+1170.85+317.901C1171.57+316.661+1172.29+315.5+1173.01+314.42C1173.73+313.34+1174.55+312.42+1175.47+311.66C1176.4+310.9+1177.58+310.44+1179.02+310.28Z" opacity="1" fill="#0975a4"/>
<path d="M1230.21+311.24C1231.25+311.4+1232.39+311.64+1233.63+311.96C1234.87+312.28+1235.97+312.74+1236.93+313.34C1237.9+313.94+1238.66+314.74+1239.22+315.741C1239.78+316.741+1239.98+318.041+1239.82+319.641C1239.82+320.521+1239.64+321.361+1239.28+322.161C1238.92+322.961+1238.48+323.701+1237.96+324.381C1237.44+325.061+1236.85+325.601+1236.21+326.001C1235.57+326.401+1235.01+326.601+1234.53+326.601C1233.89+326.521+1233.35+326.461+1232.91+326.421C1232.47+326.381+1232.13+326.361+1231.89+326.361L1231.17+326.361L1230.21+326.361C1228.84+326.361+1227.32+326.401+1225.64+326.481C1223.96+326.561+1222.8+326.841+1222.16+327.321C1221.51+327.321+1221.13+327.521+1221.01+327.921C1220.89+328.321+1220.83+328.801+1220.83+329.361L1219.15+332.001C1218.99+332.961+1218.83+333.881+1218.67+334.761C1218.51+335.481+1218.35+336.201+1218.19+336.921C1218.03+337.641+1217.91+338.121+1217.83+338.361L1217.83+340.281L1216.87+343.641C1216.71+343.961+1216.51+344.281+1216.27+344.601C1216.11+344.921+1215.95+345.221+1215.79+345.501C1215.63+345.781+1215.51+346.041+1215.43+346.281C1215.43+347.001+1215.55+347.981+1215.79+349.221C1216.03+350.461+1216.35+351.661+1216.75+352.821C1217.15+353.981+1217.61+355.001+1218.13+355.881C1218.65+356.761+1219.23+357.241+1219.87+357.321C1221.07+357.321+1222.32+356.841+1223.6+355.881C1224.88+354.921+1226.14+353.861+1227.38+352.701C1228.62+351.541+1229.83+350.501+1230.99+349.581C1232.15+348.661+1233.21+348.241+1234.17+348.321C1235.37+348.481+1236.05+348.781+1236.21+349.221C1236.37+349.661+1236.37+350.121+1236.21+350.601C1236.13+351.721+1235.67+353.001+1234.83+354.441C1233.99+355.881+1232.99+357.301+1231.83+358.701C1230.67+360.101+1229.46+361.381+1228.22+362.541C1226.98+363.701+1225.96+364.521+1225.16+365.001C1222.52+366.681+1220.15+368.081+1218.07+369.201C1215.99+370.321+1213.66+370.801+1211.1+370.641C1209.98+370.561+1209.06+369.981+1208.34+368.901C1207.62+367.821+1207.06+366.581+1206.66+365.181C1206.25+363.781+1205.95+362.401+1205.75+361.041C1205.55+359.681+1205.45+358.681+1205.45+358.041L1205.81+356.961C1205.81+356.641+1205.77+356.101+1205.69+355.341C1205.61+354.581+1205.55+353.781+1205.51+352.941C1205.47+352.101+1205.43+351.281+1205.39+350.481C1205.35+349.681+1205.37+349.081+1205.45+348.681C1205.45+346.201+1205.73+344.261+1206.29+342.861C1206.86+341.461+1207.14+339.961+1207.14+338.361L1208.46+335.361L1208.46+332.601C1208.54+332.361+1208.74+331.741+1209.06+330.741C1209.38+329.741+1209.76+328.621+1210.2+327.381C1210.64+326.141+1211.06+324.881+1211.46+323.601C1211.86+322.321+1212.18+321.321+1212.42+320.601C1212.42+320.121+1212.7+319.521+1213.26+318.801C1213.82+318.081+1214.49+317.381+1215.25+316.701C1216.01+316.021+1216.81+315.44+1217.65+314.96C1218.49+314.48+1219.23+314.24+1219.87+314.24C1220.35+314.08+1220.63+313.96+1220.71+313.88C1220.79+313.8+1220.83+313.72+1220.83+313.64C1220.83+313.56+1220.87+313.46+1220.95+313.34C1221.03+313.22+1221.31+313.08+1221.79+312.92C1223+312.76+1223.92+312.58+1224.56+312.38C1225.2+312.18+1225.8+311.98+1226.36+311.78C1226.92+311.58+1227.46+311.42+1227.98+311.3C1228.5+311.18+1229.24+311.16+1230.21+311.24Z" opacity="1" fill="#0975a4"/>
<path d="M1268.3+311C1269.98+311+1271.4+311.3+1272.56+311.9C1273.72+312.5+1274.66+313.32+1275.38+314.36C1276.11+315.4+1276.63+316.601+1276.95+317.961C1277.27+319.321+1277.39+320.761+1277.31+322.281C1277.31+324.441+1276.51+326.181+1274.9+327.501C1273.3+328.821+1271.66+329.961+1269.98+330.921C1268.46+331.961+1266.83+332.881+1265.11+333.681C1263.39+334.481+1261.79+335.361+1260.31+336.321C1258.82+337.281+1257.58+338.401+1256.58+339.681C1255.58+340.961+1255.04+342.601+1254.96+344.601L1254.96+349.641C1254.8+351.001+1255.08+352.341+1255.8+353.661C1256.52+354.981+1257.44+355.641+1258.56+355.641C1258.64+355.721+1258.96+355.601+1259.52+355.281C1260.08+354.961+1260.71+354.581+1261.39+354.141C1262.07+353.701+1262.75+353.241+1263.43+352.761C1264.11+352.281+1264.61+351.921+1264.93+351.681C1266.13+351.121+1267.07+350.661+1267.75+350.301C1268.44+349.941+1268.94+349.841+1269.26+350.001C1269.82+350.001+1270.3+350.081+1270.7+350.241C1271.1+350.401+1271.3+351.001+1271.3+352.041C1271.14+353.801+1270.38+355.501+1269.02+357.141C1267.65+358.781+1266.17+360.301+1264.57+361.701C1262.97+363.101+1261.41+364.321+1259.88+365.361C1258.36+366.401+1257.36+367.161+1256.88+367.641C1255.52+368.841+1254.26+369.481+1253.1+369.561C1251.93+369.641+1250.75+369.681+1249.55+369.681C1248.83+369.601+1248.09+369.281+1247.33+368.721C1246.57+368.161+1245.89+367.501+1245.29+366.741C1244.68+365.981+1244.22+365.201+1243.9+364.401C1243.58+363.601+1243.46+362.921+1243.54+362.361L1243.54+360.321C1243.54+359.761+1243.38+359.161+1243.06+358.521C1242.9+358.201+1242.74+357.921+1242.58+357.681L1242.94+355.281L1242.94+353.361C1242.94+353.041+1243.02+352.181+1243.18+350.781C1243.34+349.381+1243.54+347.861+1243.78+346.221C1244.02+344.581+1244.24+343.021+1244.44+341.541C1244.64+340.061+1244.78+339.081+1244.87+338.601C1245.19+338.361+1245.35+338.121+1245.35+337.881C1245.35+337.641+1245.31+337.401+1245.23+337.161C1245.15+336.921+1245.11+336.621+1245.11+336.261C1245.11+335.901+1245.27+335.481+1245.59+335.001C1245.59+334.041+1245.79+333.041+1246.19+332.001C1246.43+331.441+1246.67+330.881+1246.91+330.321L1248.59+326.361C1248.75+324.601+1249.59+322.781+1251.11+320.901C1252.64+319.021+1254.42+317.321+1256.46+315.801C1258.5+314.28+1260.61+313.06+1262.77+312.14C1264.93+311.22+1266.77+310.84+1268.3+311ZM1262.89+320.001C1262.49+320.001+1262.09+320.301+1261.69+320.901C1261.29+321.501+1260.89+322.161+1260.49+322.881C1260.08+323.761+1259.68+324.681+1259.28+325.641C1259.2+326.041+1259.08+326.501+1258.92+327.021C1258.76+327.541+1258.64+328.021+1258.56+328.461C1258.48+328.901+1258.52+329.261+1258.68+329.541C1258.84+329.821+1259.16+329.961+1259.64+329.961C1260.04+330.041+1260.65+329.961+1261.45+329.721C1262.25+329.481+1263.07+329.121+1263.91+328.641C1264.75+328.161+1265.51+327.581+1266.19+326.901C1266.87+326.221+1267.25+325.481+1267.33+324.681L1267.33+322.641C1267.33+322.241+1267.21+321.881+1266.97+321.561C1266.73+321.241+1266.45+321.001+1266.13+320.841C1265.81+320.601+1265.41+320.401+1264.93+320.241L1262.89+320.001Z" opacity="1" fill="#0975a4"/>
<path d="M1319+300.32C1319.56+300.32+1319.92+300.38+1320.08+300.5C1320.24+300.62+1320.56+301+1321.04+301.64L1341.71+301.64L1351.8+303.56L1355.17+303.56C1357.41+303.56+1359.31+304.36+1360.88+305.96C1362.44+307.56+1363.7+309.42+1364.66+311.54C1365.62+313.66+1366.32+315.801+1366.76+317.961C1367.2+320.121+1367.43+321.801+1367.43+323.001C1367.43+324.361+1367.32+325.881+1367.12+327.561C1366.92+329.241+1366.52+330.901+1365.92+332.541C1365.32+334.181+1364.42+335.681+1363.22+337.041C1362.02+338.401+1360.42+339.361+1358.41+339.921C1358.09+339.921+1357.65+340.021+1357.09+340.221C1356.53+340.421+1355.97+340.661+1355.41+340.941C1354.85+341.221+1354.33+341.461+1353.85+341.661C1353.37+341.861+1353.01+341.961+1352.77+341.961C1352.21+341.961+1351.42+341.901+1350.42+341.781C1349.42+341.661+1348.42+341.421+1347.42+341.061C1346.42+340.701+1345.56+340.261+1344.84+339.741C1344.11+339.221+1343.75+338.521+1343.75+337.641C1343.75+336.521+1344.07+335.761+1344.72+335.361C1345.36+334.961+1346.18+334.661+1347.18+334.461C1348.18+334.261+1349.26+334.021+1350.42+333.741C1351.58+333.461+1352.67+332.901+1353.67+332.061C1354.67+331.221+1355.49+329.901+1356.13+328.101C1356.77+326.301+1357.09+323.801+1357.09+320.601C1357.09+320.121+1357.05+319.581+1356.97+318.981C1356.89+318.381+1356.61+317.801+1356.13+317.241C1355.49+316.361+1354.57+315.56+1353.37+314.84C1352.17+314.12+1350.9+313.52+1349.58+313.04C1348.26+312.56+1347.04+312.2+1345.92+311.96C1344.8+311.72+1344.07+311.6+1343.75+311.6L1341.71+311.6C1341.39+311.6+1341.03+311.72+1340.63+311.96C1340.23+312.2+1339.87+312.48+1339.55+312.8C1339.23+313.12+1339.01+313.48+1338.89+313.88C1338.77+314.28+1338.83+314.64+1339.07+314.96L1339.07+330.681L1339.07+336.321L1339.07+343.281L1340.39+348.681C1340.15+349.801+1339.91+350.801+1339.67+351.681C1339.51+352.481+1339.37+353.261+1339.25+354.021C1339.13+354.781+1339.07+355.321+1339.07+355.641C1339.07+357.881+1339.67+359.301+1340.87+359.901C1342.07+360.501+1343.37+360.821+1344.78+360.861C1346.18+360.901+1347.48+361.001+1348.68+361.161C1349.88+361.321+1350.48+362.041+1350.48+363.321L1350.48+364.641C1350.48+364.961+1350.36+365.381+1350.12+365.901C1349.88+366.421+1349.6+366.941+1349.28+367.461C1348.96+367.981+1348.6+368.421+1348.2+368.781C1347.8+369.141+1347.44+369.321+1347.12+369.321L1345.08+369.321C1344.44+369.321+1343.43+369.101+1342.07+368.661C1340.71+368.221+1339.71+368.001+1339.07+368.001L1331.38+368.001C1331.06+368.001+1330.4+368.061+1329.4+368.181C1328.39+368.301+1327.29+368.461+1326.09+368.661C1324.89+368.861+1323.73+369.021+1322.61+369.141C1321.49+369.261+1320.64+369.321+1320.08+369.321C1319.2+369.321+1318.36+369.301+1317.56+369.261C1316.76+369.221+1316.06+369.041+1315.46+368.721C1314.86+368.401+1314.36+367.941+1313.96+367.341C1313.55+366.741+1313.35+365.841+1313.35+364.641C1313.35+364.081+1313.37+363.421+1313.41+362.661C1313.45+361.901+1313.61+361.181+1313.9+360.501C1314.18+359.821+1314.6+359.241+1315.16+358.761C1315.72+358.281+1316.56+358.041+1317.68+358.041L1319+359.001L1323.45+359.001C1325.61+359.001+1326.69+357.881+1326.69+355.641L1326.69+352.041L1328.01+347.601L1326.69+345.321C1326.85+344.681+1327.05+344.081+1327.29+343.521C1327.45+343.041+1327.61+342.561+1327.77+342.081C1327.93+341.601+1328.01+341.241+1328.01+341.001C1328.01+340.441+1327.79+339.681+1327.35+338.721C1326.91+337.761+1326.69+336.961+1326.69+336.321C1326.69+336.081+1326.75+335.881+1326.87+335.721C1326.99+335.561+1327.15+335.321+1327.35+335.001C1327.55+334.681+1327.71+334.281+1327.83+333.801C1327.95+333.321+1328.01+332.601+1328.01+331.641L1328.01+327.321L1328.01+324.921C1328.01+324.441+1327.79+323.901+1327.35+323.301C1326.91+322.701+1326.69+321.801+1326.69+320.601L1326.69+317.241C1326.69+316.441+1326.89+315.52+1327.29+314.48C1327.53+313.92+1327.77+313.32+1328.01+312.68C1328.01+311.48+1327.49+310.44+1326.45+309.56C1325.41+308.68+1324.05+308.24+1322.37+308.24L1321.04+308.24C1320.8+308.24+1320.32+308.16+1319.6+308C1318.88+307.84+1318.12+307.62+1317.32+307.34C1316.52+307.06+1315.82+306.72+1315.22+306.32C1314.62+305.92+1314.32+305.48+1314.32+305C1314.32+304.28+1314.5+303.64+1314.86+303.08C1315.22+302.52+1315.66+302.04+1316.18+301.64C1316.7+301.24+1317.22+300.92+1317.74+300.68C1318.26+300.44+1318.68+300.32+1319+300.32Z" opacity="1" fill="#0975a4"/>
<path d="M1393.62+310.28C1394.5+310.12+1395.08+310.24+1395.36+310.64C1395.64+311.04+1396.3+311.48+1397.34+311.96C1398.23+312.44+1398.99+313+1399.63+313.64C1400.27+314.28+1400.59+315.04+1400.59+315.921C1400.51+316.321+1400.43+316.761+1400.35+317.241C1400.19+318.281+1400.27+319.281+1400.59+320.241C1400.59+320.961+1400.45+321.821+1400.17+322.821C1399.89+323.821+1399.83+324.641+1399.99+325.281C1400.15+325.601+1400.39+325.921+1400.71+326.241C1400.95+326.481+1401.21+326.701+1401.49+326.901C1401.77+327.101+1402.03+327.121+1402.27+326.961C1403.07+326.801+1403.93+326.041+1404.85+324.681C1405.78+323.321+1406.68+321.801+1407.56+320.121C1408.44+318.441+1409.32+316.801+1410.2+315.2C1411.08+313.6+1411.88+312.52+1412.6+311.96L1416.33+311C1416.81+310.84+1417.35+310.8+1417.95+310.88C1418.55+310.96+1419.01+311+1419.33+311C1420.85+311.88+1421.82+313.1+1422.22+314.66C1422.62+316.221+1422.9+317.441+1423.06+318.321C1423.14+319.441+1422.76+320.921+1421.92+322.761C1421.08+324.601+1420.01+326.121+1418.73+327.321C1418.17+327.641+1417.65+327.901+1417.17+328.101C1416.69+328.301+1416.21+328.481+1415.73+328.641C1415.33+328.641+1415.03+328.621+1414.83+328.581C1414.63+328.541+1414.37+328.441+1414.05+328.281C1413.65+328.121+1413.26+328.021+1412.9+327.981C1412.54+327.941+1412.12+327.921+1411.64+327.921C1410.6+327.921+1409.62+328.321+1408.7+329.121C1407.78+329.921+1406.88+330.761+1406+331.641C1404.63+333.321+1403.57+335.221+1402.81+337.341C1402.05+339.461+1401.67+341.441+1401.67+343.281C1401.11+343.841+1400.45+344.541+1399.69+345.381C1398.93+346.221+1398.35+347.201+1397.94+348.321C1397.46+349.441+1397.24+350.601+1397.28+351.801C1397.32+353.001+1397.1+354.161+1396.62+355.281C1396.7+356.241+1396.7+357.341+1396.62+358.581C1396.54+359.821+1396.4+361.121+1396.2+362.481C1396+363.841+1395.74+365.141+1395.42+366.381C1395.1+367.621+1394.74+368.721+1394.34+369.681C1393.78+370.081+1393.1+370.441+1392.3+370.761C1391.5+371.081+1390.66+371.321+1389.77+371.481C1388.81+371.721+1387.77+371.881+1386.65+371.961C1386.25+371.961+1385.73+371.641+1385.09+371.001C1384.77+370.681+1384.49+370.361+1384.25+370.041L1382.56+366.681C1382.48+366.121+1382.56+365.161+1382.81+363.801C1383.05+362.441+1383.33+361.061+1383.65+359.661C1383.97+358.261+1384.27+357.001+1384.55+355.881C1384.83+354.761+1384.97+354.121+1384.97+353.961C1386.73+351.321+1387.89+348.541+1388.45+345.621C1389.01+342.701+1389.61+339.801+1390.25+336.921L1389.29+329.001C1388.89+327.961+1388.39+327.441+1387.79+327.441C1387.19+327.441+1386.57+327.521+1385.93+327.681C1384.65+327.921+1383.73+328.261+1383.17+328.701C1382.6+329.141+1382.12+329.601+1381.72+330.081C1381.32+330.561+1380.88+331.021+1380.4+331.461C1379.92+331.901+1379.08+332.201+1377.88+332.361C1377.24+332.361+1376.84+331.961+1376.68+331.161C1376.52+330.361+1376.36+329.641+1376.2+329.001C1376.04+328.281+1376.16+327.581+1376.56+326.901C1376.96+326.221+1377.5+325.581+1378.18+324.981C1378.86+324.381+1379.64+323.781+1380.52+323.181C1381.4+322.581+1382.2+321.961+1382.93+321.321C1383.89+320.281+1384.73+319.141+1385.45+317.901C1386.17+316.661+1386.89+315.5+1387.61+314.42C1388.33+313.34+1389.15+312.42+1390.07+311.66C1391+310.9+1392.18+310.44+1393.62+310.28Z" opacity="1" fill="#0975a4"/>
<path d="M1439.52+310.28C1440.88+310.28+1442+310.78+1442.88+311.78C1443.76+312.78+1444.21+313.84+1444.21+314.96L1443.12+318.321C1443.6+318.801+1443.93+319.481+1444.09+320.361C1444.17+320.761+1444.21+321.201+1444.21+321.681C1444.21+323.281+1444.03+324.761+1443.66+326.121C1443.3+327.481+1443.12+329.001+1443.12+330.681L1443.12+331.641C1443.12+332.041+1443.08+332.501+1443+333.021C1442.92+333.541+1442.8+334.041+1442.64+334.521C1442.48+335.081+1442.32+335.681+1442.16+336.321L1442.16+337.641C1442.16+338.521+1442.02+339.241+1441.74+339.801C1441.46+340.361+1441.16+341.081+1440.84+341.961C1440.68+342.601+1440.42+343.261+1440.06+343.941C1439.7+344.621+1439.52+345.401+1439.52+346.281C1439.52+346.601+1439.6+347.021+1439.76+347.541C1439.92+348.061+1440.16+348.581+1440.48+349.101C1440.8+349.621+1441.18+350.061+1441.62+350.421C1442.06+350.781+1442.56+350.961+1443.12+350.961C1443.76+350.961+1444.35+350.761+1444.87+350.361C1445.39+349.961+1445.81+349.521+1446.13+349.041C1446.53+348.641+1446.95+348.301+1447.39+348.021C1447.83+347.741+1448.33+347.601+1448.89+347.601L1451.17+347.601C1451.66+347.601+1451.94+347.841+1452.02+348.321C1452.1+348.801+1452.14+349.361+1452.14+350.001C1452.14+350.241+1451.78+350.721+1451.05+351.441C1450.33+352.161+1449.53+352.941+1448.65+353.781C1447.77+354.621+1446.89+355.421+1446.01+356.181C1445.13+356.941+1444.53+357.441+1444.21+357.681C1443.97+358.241+1443.44+359.201+1442.64+360.561C1441.84+361.921+1440.96+363.301+1440+364.701C1439.04+366.101+1438.02+367.341+1436.94+368.421C1435.85+369.501+1434.91+370.041+1434.11+370.041C1433.55+370.041+1432.93+369.861+1432.25+369.501C1431.57+369.141+1430.95+368.661+1430.39+368.061C1429.83+367.461+1429.37+366.841+1429.01+366.201C1428.65+365.561+1428.46+364.921+1428.46+364.281L1428.46+362.361C1428.46+361.721+1428.42+361.161+1428.34+360.681C1428.26+360.201+1427.98+359.961+1427.5+359.961L1427.5+357.681L1428.46+354.321L1428.46+348.681C1428.46+347.481+1428.63+346.521+1428.95+345.801C1429.27+345.081+1429.43+344.161+1429.43+343.041L1429.43+341.961C1429.43+341.401+1429.61+340.601+1429.97+339.561C1430.33+338.521+1430.71+337.401+1431.11+336.201C1431.51+335.001+1431.89+333.821+1432.25+332.661C1432.61+331.501+1432.79+330.481+1432.79+329.601C1432.79+328.961+1432.53+328.261+1432.01+327.501C1431.49+326.741+1430.63+326.361+1429.43+326.361C1428.95+326.361+1428.52+326.521+1428.16+326.841C1427.8+327.161+1426.78+327.321+1425.1+327.321C1424.94+327.241+1424.78+327.041+1424.62+326.721C1424.3+326.241+1424.14+325.641+1424.14+324.921L1424.14+323.001C1424.14+322.281+1424.84+321.221+1426.24+319.821C1427.64+318.421+1429.25+317.021+1431.05+315.621C1432.85+314.22+1434.59+312.98+1436.28+311.9C1437.96+310.82+1439.04+310.28+1439.52+310.28ZM1439.88+281.96C1440.2+281.96+1440.62+281.9+1441.14+281.78C1441.66+281.66+1442.2+281.54+1442.76+281.42C1443.32+281.3+1443.86+281.18+1444.39+281.06C1444.91+280.94+1445.29+280.88+1445.53+280.88C1446.65+281.28+1447.37+281.96+1447.69+282.92C1448.01+283.88+1448.49+284.88+1449.13+285.92C1449.13+286.56+1449.19+287.2+1449.31+287.84C1449.43+288.48+1449.49+289.08+1449.49+289.64C1449.49+290.12+1449.33+290.7+1449.01+291.38C1448.69+292.06+1448.53+292.92+1448.53+293.96C1448.37+294.52+1448.15+295.2+1447.87+296C1447.59+296.8+1447.23+297.54+1446.79+298.22C1446.35+298.9+1445.83+299.46+1445.23+299.9C1444.63+300.34+1443.93+300.48+1443.12+300.32C1442+300.32+1440.78+299.94+1439.46+299.18C1438.14+298.42+1437.16+297.44+1436.52+296.24C1435.95+295.76+1435.75+295.04+1435.91+294.08C1436.07+293.12+1436.15+292.28+1436.15+291.56C1436.15+289.4+1436.52+287.64+1437.24+286.28C1437.96+284.92+1438.84+283.48+1439.88+281.96Z" opacity="1" fill="#0975a4"/>
<path d="M1475.21+324.681C1475.53+326.041+1475.87+327.181+1476.23+328.101C1476.59+329.021+1476.91+329.901+1477.19+330.741C1477.47+331.581+1477.71+332.461+1477.91+333.381C1478.11+334.301+1478.21+335.401+1478.21+336.681L1478.93+341.961C1478.93+343.161+1478.99+344.061+1479.11+344.661C1479.23+345.261+1479.37+345.801+1479.53+346.281C1479.69+346.681+1479.87+347.281+1480.07+348.081C1480.27+348.881+1480.53+349.281+1480.85+349.281C1481.25+349.281+1481.65+348.881+1482.05+348.081C1482.46+347.281+1482.86+346.801+1483.26+346.641C1483.74+346.161+1484.42+345.601+1485.3+344.961C1486.18+344.321+1486.62+343.561+1486.62+342.681C1486.62+341.641+1487.06+340.621+1487.94+339.621C1488.82+338.621+1489.26+337.841+1489.26+337.281C1489.26+336.161+1489.2+335.181+1489.08+334.341C1488.96+333.501+1488.9+332.281+1488.9+330.681C1488.9+330.201+1488.72+329.641+1488.36+329.001C1488+328.361+1487.58+327.741+1487.1+327.141C1486.62+326.541+1486.2+325.921+1485.84+325.281C1485.48+324.641+1485.3+324.081+1485.3+323.601C1485.3+322.561+1485.4+321.821+1485.6+321.381C1485.8+320.941+1486.06+320.581+1486.38+320.301C1486.7+320.021+1487.06+319.681+1487.46+319.281C1487.86+318.881+1488.22+318.121+1488.54+317.001C1488.94+315.32+1489.66+314.02+1490.71+313.1C1491.75+312.18+1493.03+311.12+1494.55+309.92C1495.75+310.48+1496.49+311.02+1496.77+311.54C1497.05+312.06+1497.43+312.64+1497.92+313.28C1499.12+314.8+1499.92+316.081+1500.32+317.121C1500.72+318.161+1500.92+319.441+1500.92+320.961L1500.92+325.641C1500.92+326.041+1500.98+326.361+1501.1+326.601C1501.22+326.841+1501.28+327.521+1501.28+328.641C1501.28+330.161+1501.08+331.561+1500.68+332.841C1500.28+334.121+1499.6+335.601+1498.64+337.281C1498.64+337.761+1498.58+338.081+1498.46+338.241C1498.34+338.401+1498.22+338.521+1498.1+338.601C1497.98+338.681+1497.86+338.801+1497.74+338.961C1497.62+339.121+1497.56+339.441+1497.56+339.921C1497.07+340.481+1496.67+341.001+1496.35+341.481C1496.03+341.881+1495.77+342.321+1495.57+342.801C1495.37+343.281+1495.27+343.681+1495.27+344.001C1495.27+344.241+1495.09+344.561+1494.73+344.961C1494.37+345.361+1493.99+345.821+1493.59+346.341C1493.19+346.861+1492.81+347.401+1492.45+347.961C1492.09+348.521+1491.91+349.081+1491.91+349.641C1491.03+350.761+1490.25+351.681+1489.56+352.401C1488.88+353.121+1488.22+353.821+1487.58+354.501C1486.94+355.181+1486.26+355.901+1485.54+356.661C1484.82+357.421+1484.06+358.321+1483.26+359.361C1482.13+360.721+1481.19+362.101+1480.43+363.501C1479.67+364.901+1478.89+366.181+1478.09+367.341C1477.29+368.501+1476.37+369.461+1475.33+370.221C1474.28+370.981+1472.92+371.361+1471.24+371.361C1470.68+371.361+1470.2+371.281+1469.8+371.121C1469.4+370.961+1469.2+370.361+1469.2+369.321L1470.16+363.681C1469.68+362.641+1469.4+361.781+1469.32+361.101C1469.24+360.421+1469.2+359.841+1469.2+359.361C1469.2+357.681+1469.26+356.201+1469.38+354.921C1469.5+353.641+1469.56+352.441+1469.56+351.321C1469.56+350.281+1469.48+349.361+1469.32+348.561C1469.16+347.761+1468.96+347.001+1468.72+346.281C1468.48+345.561+1468.28+344.881+1468.12+344.241C1467.96+343.601+1467.88+342.841+1467.88+341.961C1467.88+341.721+1467.68+340.981+1467.28+339.741C1466.87+338.501+1466.45+337.141+1466.01+335.661C1465.57+334.181+1465.15+332.781+1464.75+331.461C1464.35+330.141+1464.15+329.321+1464.15+329.001C1464.15+327.961+1463.55+327.141+1462.35+326.541C1461.15+325.941+1459.99+325.641+1458.86+325.641C1458.22+325.641+1457.76+325.721+1457.48+325.881C1457.2+326.041+1456.92+326.241+1456.64+326.481C1456.36+326.721+1456+326.921+1455.56+327.081C1455.12+327.241+1454.42+327.321+1453.46+327.321C1452.98+327.321+1452.54+327.121+1452.14+326.721C1451.9+326.481+1451.7+326.241+1451.53+326.001C1451.53+324.961+1451.92+323.921+1452.68+322.881C1453.44+321.841+1454.18+321.321+1454.9+321.321C1456.02+320.281+1457.12+319.261+1458.2+318.261C1459.29+317.261+1460.51+316.481+1461.87+315.921C1462.11+315.601+1462.53+315.12+1463.13+314.48C1463.73+313.84+1464.41+313.22+1465.17+312.62C1465.93+312.02+1466.69+311.48+1467.46+311C1468.22+310.52+1468.92+310.28+1469.56+310.28C1470.6+310.28+1471.36+310.64+1471.84+311.36C1472.32+312.08+1472.62+312.92+1472.74+313.88C1472.86+314.84+1472.92+315.801+1472.92+316.761C1472.92+317.721+1473+318.441+1473.16+318.921L1475.21+324.681Z" opacity="1" fill="#0975a4"/>
<path d="M1542.37+309.92C1544.06+309.92+1545.26+310.4+1545.98+311.36C1546.7+312.32+1547.06+313.64+1547.06+315.32C1547.06+315.641+1546.94+316.341+1546.7+317.421C1546.46+318.501+1546.16+319.701+1545.8+321.021C1545.44+322.341+1545.06+323.681+1544.66+325.041C1544.26+326.401+1543.94+327.481+1543.7+328.281C1543.7+328.921+1543.66+329.581+1543.58+330.261C1543.5+330.941+1543.21+331.841+1542.73+332.961C1542.09+333.441+1541.77+334.221+1541.77+335.301C1541.77+336.381+1541.77+337.161+1541.77+337.641L1541.41+344.001L1541.41+348.681C1541.41+348.921+1541.43+349.341+1541.47+349.941C1541.51+350.541+1541.59+351.141+1541.71+351.741C1541.83+352.341+1542.05+352.861+1542.37+353.301C1542.69+353.741+1543.13+353.961+1543.7+353.961L1545.38+351.321C1545.86+350.921+1546.42+350.421+1547.06+349.821C1547.7+349.221+1548.34+348.641+1548.98+348.081C1549.7+347.441+1550.42+346.761+1551.15+346.041C1551.63+346.041+1552.03+346.241+1552.35+346.641C1552.67+347.041+1552.83+347.481+1552.83+347.961L1552.35+348.921C1552.03+349.561+1551.71+350.041+1551.39+350.361C1550.82+351.961+1550.1+353.341+1549.22+354.501C1548.34+355.661+1547.38+356.781+1546.34+357.861C1545.3+358.941+1544.24+360.041+1543.15+361.161C1542.07+362.281+1541.05+363.561+1540.09+365.001L1537.45+368.721C1537.45+369.441+1537.23+370.181+1536.79+370.941C1536.35+371.701+1535.83+372.301+1535.22+372.741C1534.62+373.181+1533.98+373.381+1533.3+373.341C1532.62+373.301+1532.08+372.841+1531.68+371.961C1531.2+370.521+1530.96+369.101+1530.96+367.701C1530.96+366.301+1531.08+364.941+1531.32+363.621C1531.56+362.301+1531.8+361.041+1532.04+359.841C1532.28+358.641+1532.4+357.481+1532.4+356.361L1532.4+352.041L1532.4+349.641C1532.4+349.241+1532.12+348.961+1531.56+348.801C1531.24+348.721+1530.96+348.681+1530.72+348.681C1530.48+348.681+1529.88+349.381+1528.92+350.781C1527.95+352.181+1526.85+353.781+1525.61+355.581C1524.37+357.381+1523.11+359.201+1521.83+361.041C1520.55+362.881+1519.5+364.201+1518.7+365.001C1518.46+365.321+1518.08+365.781+1517.56+366.381C1517.04+366.981+1516.48+367.561+1515.88+368.121C1515.28+368.681+1514.62+369.181+1513.9+369.621C1513.18+370.061+1512.53+370.281+1511.97+370.281C1510.85+370.281+1509.93+369.881+1509.21+369.081C1508.49+368.281+1507.93+367.341+1507.53+366.261C1507.13+365.181+1506.83+364.101+1506.63+363.021C1506.43+361.941+1506.33+361.161+1506.33+360.681L1505.97+352.041L1507.65+338.001C1507.65+337.761+1507.77+337.201+1508.01+336.321C1508.25+335.441+1508.57+334.481+1508.97+333.441C1509.37+332.401+1509.83+331.381+1510.35+330.381C1510.87+329.381+1511.41+328.561+1511.97+327.921C1514.3+325.761+1516.54+323.121+1518.7+320.001C1519.74+318.561+1520.75+317.521+1521.71+316.881C1522.67+316.241+1523.63+315.741+1524.59+315.38C1525.55+315.02+1526.51+314.74+1527.47+314.54C1528.44+314.34+1529.52+313.92+1530.72+313.28C1531.2+313.28+1531.82+313.02+1532.58+312.5C1533.34+311.98+1534.04+311.48+1534.68+311L1538.05+311L1540.09+311L1542.37+309.92ZM1526.99+323.241C1525.55+324.441+1524.19+325.821+1522.91+327.381C1521.63+328.941+1520.51+330.521+1519.54+332.121C1518.58+333.721+1517.82+335.221+1517.26+336.621C1516.7+338.021+1516.42+339.121+1516.42+339.921C1516.42+340.321+1516.38+341.061+1516.3+342.141C1516.22+343.221+1516.26+344.341+1516.42+345.501C1516.58+346.661+1516.88+347.701+1517.32+348.621C1517.76+349.541+1518.54+350.001+1519.66+350.001C1520.71+350.001+1521.93+349.081+1523.33+347.241C1524.73+345.401+1526.05+343.321+1527.29+341.001C1528.54+338.681+1529.58+336.521+1530.42+334.521C1531.26+332.521+1531.68+331.321+1531.68+330.921C1531.68+330.601+1531.72+329.821+1531.8+328.581C1531.88+327.341+1531.82+326.141+1531.62+324.981C1531.42+323.821+1530.98+322.981+1530.3+322.461C1529.62+321.941+1528.52+322.201+1526.99+323.241Z" opacity="1" fill="#0975a4"/>
<path d="M1578.54+311.24C1579.58+311.4+1580.72+311.64+1581.97+311.96C1583.21+312.28+1584.31+312.74+1585.27+313.34C1586.23+313.94+1586.99+314.74+1587.55+315.741C1588.11+316.741+1588.31+318.041+1588.15+319.641C1588.15+320.521+1587.97+321.361+1587.61+322.161C1587.25+322.961+1586.81+323.701+1586.29+324.381C1585.77+325.061+1585.19+325.601+1584.55+326.001C1583.91+326.401+1583.35+326.601+1582.87+326.601C1582.23+326.521+1581.68+326.461+1581.24+326.421C1580.8+326.381+1580.46+326.361+1580.22+326.361L1579.5+326.361L1578.54+326.361C1577.18+326.361+1575.66+326.401+1573.97+326.481C1572.29+326.561+1571.13+326.841+1570.49+327.321C1569.85+327.321+1569.47+327.521+1569.35+327.921C1569.23+328.321+1569.17+328.801+1569.17+329.361L1567.49+332.001C1567.33+332.961+1567.17+333.881+1567.01+334.761C1566.85+335.481+1566.69+336.201+1566.53+336.921C1566.36+337.641+1566.24+338.121+1566.16+338.361L1566.16+340.281L1565.2+343.641C1565.04+343.961+1564.84+344.281+1564.6+344.601C1564.44+344.921+1564.28+345.221+1564.12+345.501C1563.96+345.781+1563.84+346.041+1563.76+346.281C1563.76+347.001+1563.88+347.981+1564.12+349.221C1564.36+350.461+1564.68+351.661+1565.08+352.821C1565.48+353.981+1565.94+355.001+1566.47+355.881C1566.99+356.761+1567.57+357.241+1568.21+357.321C1569.41+357.321+1570.65+356.841+1571.93+355.881C1573.21+354.921+1574.48+353.861+1575.72+352.701C1576.96+351.541+1578.16+350.501+1579.32+349.581C1580.48+348.661+1581.54+348.241+1582.51+348.321C1583.71+348.481+1584.39+348.781+1584.55+349.221C1584.71+349.661+1584.71+350.121+1584.55+350.601C1584.47+351.721+1584.01+353.001+1583.17+354.441C1582.33+355.881+1581.32+357.301+1580.16+358.701C1579+360.101+1577.8+361.381+1576.56+362.541C1575.32+363.701+1574.3+364.521+1573.49+365.001C1570.85+366.681+1568.49+368.081+1566.4+369.201C1564.32+370.321+1562+370.801+1559.44+370.641C1558.31+370.561+1557.39+369.981+1556.67+368.901C1555.95+367.821+1555.39+366.581+1554.99+365.181C1554.59+363.781+1554.29+362.401+1554.09+361.041C1553.89+359.681+1553.79+358.681+1553.79+358.041L1554.15+356.961C1554.15+356.641+1554.11+356.101+1554.03+355.341C1553.95+354.581+1553.89+353.781+1553.85+352.941C1553.81+352.101+1553.77+351.281+1553.73+350.481C1553.69+349.681+1553.71+349.081+1553.79+348.681C1553.79+346.201+1554.07+344.261+1554.63+342.861C1555.19+341.461+1555.47+339.961+1555.47+338.361L1556.79+335.361L1556.79+332.601C1556.87+332.361+1557.07+331.741+1557.39+330.741C1557.71+329.741+1558.09+328.621+1558.53+327.381C1558.98+326.141+1559.4+324.881+1559.8+323.601C1560.2+322.321+1560.52+321.321+1560.76+320.601C1560.76+320.121+1561.04+319.521+1561.6+318.801C1562.16+318.081+1562.82+317.381+1563.58+316.701C1564.34+316.021+1565.14+315.44+1565.98+314.96C1566.83+314.48+1567.57+314.24+1568.21+314.24C1568.69+314.08+1568.97+313.96+1569.05+313.88C1569.13+313.8+1569.17+313.72+1569.17+313.64C1569.17+313.56+1569.21+313.46+1569.29+313.34C1569.37+313.22+1569.65+313.08+1570.13+312.92C1571.33+312.76+1572.25+312.58+1572.89+312.38C1573.53+312.18+1574.14+311.98+1574.7+311.78C1575.26+311.58+1575.8+311.42+1576.32+311.3C1576.84+311.18+1577.58+311.16+1578.54+311.24Z" opacity="1" fill="#0975a4"/>
<path d="M1642.7+313.64C1644.31+313.64+1645.49+314.12+1646.25+315.08C1647.01+316.041+1647.39+317.121+1647.39+318.321L1645.95+326.361L1645.95+328.281C1645.95+329.161+1645.87+330.061+1645.71+330.981C1645.55+331.901+1645.23+332.761+1644.75+333.561C1644.27+334.361+1643.61+335.021+1642.76+335.541C1641.92+336.061+1640.78+336.321+1639.34+336.321C1638.7+336.321+1638.3+336.561+1638.14+337.041C1638.06+337.281+1638.02+337.481+1638.02+337.641C1636.9+338.761+1636.08+339.861+1635.56+340.941C1635.03+342.021+1634.59+343.101+1634.23+344.181C1633.87+345.261+1633.51+346.321+1633.15+347.361C1632.79+348.401+1632.29+349.401+1631.65+350.361C1631.17+350.841+1630.71+351.381+1630.27+351.981C1629.83+352.581+1629.61+353.481+1629.61+354.681C1629.13+355.481+1628.73+356.241+1628.41+356.961C1628.01+357.601+1627.64+358.201+1627.32+358.761C1627+359.321+1626.76+359.721+1626.6+359.961C1626.28+360.921+1625.96+361.661+1625.64+362.181C1625.32+362.701+1624.98+363.241+1624.62+363.801C1624.26+364.361+1623.88+364.961+1623.48+365.601C1623.08+366.241+1622.68+367.161+1622.28+368.361C1621.96+369.241+1621.66+369.921+1621.38+370.401C1621.1+370.881+1620.86+371.321+1620.66+371.721C1620.46+372.121+1620.28+372.521+1620.12+372.921C1619.95+373.321+1619.79+373.801+1619.63+374.361L1618.67+377.001C1618.27+377.641+1617.99+378.141+1617.83+378.501C1617.67+378.861+1617.15+379.481+1616.27+380.361C1615.39+381.481+1614.61+382.521+1613.93+383.481C1613.25+384.441+1612.91+385.161+1612.91+385.641C1611.62+388.841+1609.3+392.321+1605.94+396.081C1604.41+398.081+1603.03+399.961+1601.79+401.721C1600.55+403.481+1599.37+404.681+1598.25+405.321C1592.64+408.681+1588.19+412.161+1584.91+415.761C1584.35+415.921+1583.53+416.281+1582.45+416.841C1581.36+417.401+1580.26+418.001+1579.14+418.641C1577.78+419.361+1576.34+420.161+1574.82+421.041L1573.49+421.041C1573.01+421.041+1572.29+421.261+1571.33+421.701C1570.37+422.141+1569.65+422.361+1569.17+422.361L1565.56+422.361C1565.16+422.361+1564.46+422.141+1563.46+421.701C1562.46+421.261+1561.68+421.041+1561.12+421.041C1560.88+421.041+1560.5+421.121+1559.98+421.281C1559.46+421.441+1558.92+421.601+1558.35+421.761C1557.71+422.001+1557.07+422.201+1556.43+422.361C1555.47+422.361+1554.61+422.061+1553.85+421.461C1553.09+420.861+1552.19+420.041+1551.15+419.001C1550.5+419.001+1549.68+418.721+1548.68+418.161C1547.68+417.601+1546.94+417.001+1546.46+416.361C1546.46+416.201+1546.4+415.841+1546.28+415.281C1546.16+414.721+1546.04+414.081+1545.92+413.361C1545.8+412.641+1545.7+411.941+1545.62+411.261C1545.54+410.581+1545.5+410.081+1545.5+409.761C1545.5+408.641+1545.86+407.561+1546.58+406.521C1547.3+405.481+1548.18+404.541+1549.22+403.701C1550.26+402.861+1551.35+402.201+1552.47+401.721C1553.59+401.241+1554.59+401.001+1555.47+401.001C1556.35+401.001+1557.33+401.241+1558.41+401.721C1559.5+402.201+1560.64+402.761+1561.84+403.401C1563.36+404.041+1564.74+404.701+1565.98+405.381C1567.23+406.061+1568.29+406.401+1569.17+406.401L1573.13+407.001C1573.93+406.441+1574.84+406.081+1575.84+405.921C1576.84+405.761+1577.84+405.601+1578.84+405.441C1579.84+405.281+1580.82+405.061+1581.79+404.781C1582.75+404.501+1583.67+403.921+1584.55+403.041C1586.23+402.561+1587.91+401.741+1589.6+400.581C1591.28+399.421+1592.92+398.001+1594.52+396.321C1595.08+395.841+1595.76+395.061+1596.56+393.981C1597.37+392.901+1598.05+391.801+1598.61+390.681C1599.73+389.561+1600.83+388.241+1601.91+386.721C1602.99+385.201+1603.77+383.841+1604.25+382.641C1605.06+381.841+1605.88+380.841+1606.72+379.641C1607.56+378.441+1608.28+377.181+1608.88+375.861C1609.48+374.541+1609.98+373.201+1610.38+371.841C1610.78+370.481+1610.98+369.201+1610.98+368.001L1610.98+365.961L1610.98+363.321C1611.14+362.521+1611.3+361.761+1611.46+361.041C1611.62+360.401+1611.74+359.781+1611.82+359.181C1611.9+358.581+1611.94+358.081+1611.94+357.681C1611.94+357.121+1611.78+356.701+1611.46+356.421C1611.14+356.141+1610.98+355.441+1610.98+354.321L1610.98+353.361C1610.74+353.121+1610.54+352.841+1610.38+352.521C1610.06+351.881+1609.9+351.361+1609.9+350.961L1609.9+350.001C1609.9+348.561+1609.62+347.021+1609.06+345.381C1608.5+343.741+1607.78+342.141+1606.9+340.581C1606.02+339.021+1604.96+337.581+1603.71+336.261C1602.47+334.941+1601.21+333.841+1599.93+332.961C1599.29+332.321+1598.87+332.161+1598.67+332.481C1598.47+332.801+1598.09+332.961+1597.53+332.961L1596.56+332.961L1593.92+332.961L1591.88+333.921C1591.24+333.921+1590.48+333.661+1589.6+333.141C1588.71+332.621+1588.27+331.801+1588.27+330.681C1588.27+330.441+1588.75+329.721+1589.72+328.521C1590.68+327.321+1591.78+326.021+1593.02+324.621C1594.26+323.221+1595.44+321.901+1596.56+320.661C1597.69+319.421+1598.37+318.641+1598.61+318.321C1599.25+317.681+1600.07+317.121+1601.07+316.641C1602.07+316.161+1603.13+315.921+1604.25+315.921C1605.94+315.921+1607.18+316.461+1607.98+317.541C1608.78+318.621+1609.78+320.001+1610.98+321.681C1612.1+324.001+1613.03+326.041+1613.75+327.801C1614.47+329.561+1615.11+331.281+1615.67+332.961C1615.91+334.321+1616.19+335.461+1616.51+336.381C1616.83+337.301+1617.13+338.161+1617.41+338.961C1617.69+339.761+1617.89+340.561+1618.01+341.361C1618.13+342.161+1618.11+343.161+1617.95+344.361C1617.79+344.921+1617.81+345.561+1618.01+346.281C1618.21+347.001+1618.49+347.681+1618.85+348.321C1619.21+348.961+1619.63+349.501+1620.12+349.941C1620.6+350.381+1621+350.601+1621.32+350.601C1621.8+350.601+1622.3+350.081+1622.82+349.041C1623.34+348.001+1623.84+346.821+1624.32+345.501C1624.8+344.181+1625.24+342.861+1625.64+341.541C1626.04+340.221+1626.36+339.241+1626.6+338.601C1627.24+337.721+1627.81+336.901+1628.29+336.141C1628.77+335.381+1629.25+334.661+1629.73+333.981C1630.21+333.301+1630.75+332.621+1631.35+331.941C1631.95+331.261+1632.73+330.481+1633.69+329.601C1634.33+328.721+1634.79+327.761+1635.07+326.721C1635.35+325.681+1635.66+324.641+1635.98+323.601C1636.14+322.641+1636.38+321.681+1636.7+320.721C1637.02+319.761+1637.46+318.961+1638.02+318.321C1638.66+317.121+1639.3+316.041+1639.94+315.08C1640.58+314.12+1641.5+313.64+1642.7+313.64Z" opacity="1" fill="#0975a4"/>
</g>
<g opacity="1">
<path d="M690.092+185.539L690.092+221.34C690.092+228.322+690.521+232.718+691.379+234.527C692.238+236.336+693.763+237.78+695.956+238.859C698.149+239.938+702.169+240.478+708.016+240.478L708.016+244.001L642.327+244.001L642.327+240.478C648.302+240.478+652.354+239.923+654.483+238.812C656.612+237.701+658.106+236.257+658.964+234.479C659.822+232.702+660.251+228.322+660.251+221.34L660.251+137.55C660.251+130.568+659.822+126.172+658.964+124.363C658.106+122.554+656.596+121.11+654.435+120.031C652.274+118.951+648.238+118.412+642.327+118.412L642.327+114.889L698.673+114.889C717.232+114.889+730.548+118.19+738.62+124.791C746.692+131.393+750.728+139.645+750.728+149.547C750.728+157.926+748.122+165.099+742.91+171.066C737.698+177.033+730.516+181.095+721.364+183.254C715.198+184.777+704.775+185.539+690.092+185.539ZM690.092+122.316L690.092+178.112C692.19+178.239+693.779+178.302+694.859+178.302C702.614+178.302+708.588+176.001+712.783+171.399C716.978+166.797+719.076+159.672+719.076+150.023C719.076+140.438+716.978+133.424+712.783+128.981C708.588+124.537+702.328+122.316+694.001+122.316L690.092+122.316Z" opacity="1" fill="#805cb2"/>
<path d="M823.148+185.158L823.148+221.34C823.148+228.322+823.577+232.718+824.435+234.527C825.293+236.336+826.803+237.78+828.964+238.859C831.125+239.938+835.161+240.478+841.072+240.478L841.072+244.001L774.906+244.001L774.906+240.478C780.881+240.478+784.933+239.923+787.062+238.812C789.191+237.701+790.685+236.257+791.543+234.479C792.401+232.702+792.83+228.322+792.83+221.34L792.83+137.55C792.83+130.568+792.401+126.172+791.543+124.363C790.685+122.554+789.175+121.11+787.014+120.031C784.853+118.951+780.817+118.412+774.906+118.412L774.906+114.889L834.97+114.889C850.606+114.889+862.046+115.968+869.292+118.126C876.538+120.284+882.449+124.268+887.025+130.076C891.602+135.884+893.89+142.692+893.89+150.499C893.89+160.021+890.458+167.892+883.593+174.113C879.207+178.048+873.074+181+865.193+182.968L896.273+226.672C900.341+232.321+903.233+235.844+904.949+237.241C907.555+239.209+910.574+240.288+914.006+240.478L914.006+244.001L873.296+244.001L831.633+185.158L823.148+185.158ZM823.148+121.84L823.148+178.398L828.582+178.398C837.417+178.398+844.027+177.588+848.413+175.97C852.798+174.351+856.247+171.431+858.757+167.21C861.268+162.989+862.523+157.482+862.523+150.69C862.523+140.851+860.219+133.583+855.611+128.886C851.003+124.188+843.582+121.84+833.349+121.84L823.148+121.84Z" opacity="1" fill="#805cb2"/>
<path d="M998.439+240.478L998.439+244.001L930.843+244.001L930.843+240.478L935.134+240.478C938.884+240.478+941.903+239.812+944.191+238.479C945.843+237.59+947.115+236.066+948.004+233.908C948.704+232.385+949.053+228.386+949.053+221.911L949.053+136.979C949.053+130.377+948.704+126.251+948.004+124.601C947.305+122.951+945.891+121.506+943.762+120.269C941.633+119.031+938.756+118.412+935.134+118.412L930.843+118.412L930.843+114.889L998.439+114.889L998.439+118.412L994.149+118.412C990.399+118.412+987.38+119.078+985.091+120.411C983.439+121.3+982.136+122.824+981.182+124.982C980.483+126.505+980.134+130.504+980.134+136.979L980.134+221.911C980.134+228.513+980.499+232.639+981.23+234.289C981.961+235.939+983.391+237.384+985.52+238.621C987.65+239.859+990.526+240.478+994.149+240.478L998.439+240.478Z" opacity="1" fill="#805cb2"/>
<path d="M1156.57+114.889L1156.57+118.412C1151.87+119.174+1147.67+121.681+1143.98+125.934C1141.31+129.108+1137.34+136.566+1132.07+148.31L1087.54+246.953L1084.4+246.953L1040.06+144.31C1034.73+131.932+1031.15+124.664+1029.34+122.506C1027.53+120.348+1024.11+118.983+1019.09+118.412L1019.09+114.889L1081.06+114.889L1081.06+118.412L1078.96+118.412C1073.37+118.412+1069.56+119.11+1067.52+120.507C1066.06+121.459+1065.33+122.855+1065.33+124.696C1065.33+125.839+1065.58+127.188+1066.09+128.743C1066.6+130.298+1068.32+134.472+1071.24+141.264L1098.79+205.534L1124.34+148.31C1127.39+141.391+1129.27+136.757+1129.97+134.408C1130.67+132.059+1131.02+130.06+1131.02+128.41C1131.02+126.505+1130.51+124.823+1129.49+123.363C1128.48+121.903+1126.98+120.792+1125.01+120.031C1122.28+118.951+1118.66+118.412+1114.14+118.412L1114.14+114.889L1156.57+114.889Z" opacity="1" fill="#805cb2"/>
<path d="M1226.41+122.316L1226.41+174.875L1228.99+174.875C1237.19+174.875+1243.13+172.304+1246.82+167.162C1250.5+162.021+1252.86+154.435+1253.87+144.406L1257.49+144.406L1257.49+212.009L1253.87+212.009C1253.11+204.645+1251.5+198.615+1249.06+193.918C1246.61+189.22+1243.77+186.062+1240.52+184.444C1237.28+182.825+1232.58+182.016+1226.41+182.016L1226.41+218.388C1226.41+225.497+1226.72+229.846+1227.32+231.433C1227.92+233.02+1229.05+234.321+1230.7+235.336C1232.36+236.352+1235.03+236.86+1238.71+236.86L1246.44+236.86C1258.51+236.86+1268.19+234.067+1275.47+228.481C1282.74+222.895+1287.97+214.389+1291.15+202.963L1294.68+202.963L1288.86+244.001L1177.12+244.001L1177.12+240.478L1181.41+240.478C1185.16+240.478+1188.18+239.812+1190.47+238.479C1192.12+237.59+1193.4+236.066+1194.28+233.908C1194.98+232.385+1195.33+228.386+1195.33+221.911L1195.33+136.979C1195.33+131.139+1195.17+127.553+1194.86+126.22C1194.22+123.998+1193.05+122.284+1191.33+121.078C1188.91+119.301+1185.61+118.412+1181.41+118.412L1177.12+118.412L1177.12+114.889L1285.33+114.889L1285.33+153.07L1281.71+153.07C1279.87+143.739+1277.28+137.042+1273.94+132.98C1270.6+128.917+1265.88+125.934+1259.78+124.03C1256.22+122.887+1249.55+122.316+1239.76+122.316L1226.41+122.316Z" opacity="1" fill="#805cb2"/>
<path d="M1399.32+207.248L1353.65+207.248L1348.22+219.816C1346.44+224.006+1345.55+227.465+1345.55+230.195C1345.55+233.813+1347.01+236.479+1349.94+238.193C1351.65+239.209+1355.88+239.97+1362.62+240.478L1362.62+244.001L1319.62+244.001L1319.62+240.478C1324.26+239.78+1328.07+237.86+1331.06+234.718C1334.05+231.575+1337.73+225.085+1342.12+215.246L1388.36+112.223L1390.17+112.223L1436.79+218.102C1441.24+228.132+1444.89+234.448+1447.75+237.05C1449.92+239.018+1452.97+240.161+1456.91+240.478L1456.91+244.001L1394.36+244.001L1394.36+240.478L1396.94+240.478C1401.96+240.478+1405.49+239.78+1407.52+238.383C1408.92+237.368+1409.62+235.908+1409.62+234.003C1409.62+232.861+1409.43+231.686+1409.05+230.48C1408.92+229.909+1407.97+227.529+1406.19+223.339L1399.32+207.248ZM1396.08+200.202L1376.82+155.736L1356.99+200.202L1396.08+200.202Z" opacity="1" fill="#805cb2"/>
<path d="M1565.46+111.937L1566.51+154.975L1562.6+154.975C1560.76+144.184+1556.23+135.503+1549.01+128.933C1541.8+122.363+1534+119.078+1525.61+119.078C1519.13+119.078+1513.99+120.808+1510.21+124.268C1506.43+127.727+1504.54+131.71+1504.54+136.217C1504.54+139.074+1505.21+141.613+1506.54+143.834C1508.38+146.818+1511.34+149.77+1515.41+152.689C1518.39+154.784+1525.29+158.498+1536.1+163.83C1551.22+171.256+1561.42+178.271+1566.7+184.872C1571.91+191.474+1574.52+199.028+1574.52+207.534C1574.52+218.325+1570.31+227.608+1561.88+235.384C1553.46+243.16+1542.77+247.048+1529.8+247.048C1525.74+247.048+1521.89+246.635+1518.27+245.81C1514.64+244.985+1510.1+243.43+1504.63+241.145C1501.58+239.875+1499.07+239.24+1497.1+239.24C1495.45+239.24+1493.7+239.875+1491.86+241.145C1490.01+242.414+1488.52+244.35+1487.38+246.953L1483.85+246.953L1483.85+198.202L1487.38+198.202C1490.17+211.913+1495.56+222.371+1503.54+229.576C1511.51+236.781+1520.11+240.383+1529.33+240.383C1536.45+240.383+1542.12+238.447+1546.34+234.575C1550.57+230.703+1552.68+226.196+1552.68+221.054C1552.68+218.007+1551.87+215.056+1550.25+212.199C1548.63+209.343+1546.17+206.629+1542.86+204.058C1539.56+201.487+1533.71+198.139+1525.32+194.013C1513.56+188.237+1505.11+183.317+1499.96+179.255C1494.81+175.192+1490.86+170.653+1488.09+165.639C1485.33+160.624+1483.94+155.102+1483.94+149.071C1483.94+138.788+1487.73+130.028+1495.29+122.792C1502.85+115.555+1512.39+111.937+1523.89+111.937C1528.09+111.937+1532.15+112.445+1536.1+113.461C1539.08+114.222+1542.72+115.635+1547.01+117.698C1551.3+119.761+1554.31+120.792+1556.02+120.792C1557.67+120.792+1558.98+120.284+1559.93+119.269C1560.88+118.253+1561.77+115.809+1562.6+111.937L1565.46+111.937Z" opacity="1" fill="#805cb2"/>
<path d="M1735.79+114.889L1735.79+118.412C1731.53+118.983+1728.26+120.221+1725.97+122.125C1722.8+124.791+1717.77+132.059+1710.91+143.93L1682.88+190.68L1682.88+221.911C1682.88+228.576+1683.23+232.718+1683.93+234.337C1684.63+235.955+1686.01+237.384+1688.08+238.621C1690.14+239.859+1692.89+240.478+1696.32+240.478L1703.57+240.478L1703.57+244.001L1631.02+244.001L1631.02+240.478L1637.78+240.478C1641.6+240.478+1644.62+239.812+1646.84+238.479C1648.49+237.59+1649.8+236.066+1650.75+233.908C1651.45+232.385+1651.8+228.386+1651.8+221.911L1651.8+196.012L1621.39+140.692C1615.35+129.774+1611.09+123.347+1608.61+121.411C1606.13+119.475+1602.83+118.475+1598.7+118.412L1598.7+114.889L1660.67+114.889L1660.67+118.412L1657.9+118.412C1654.15+118.412+1651.53+118.951+1650.04+120.031C1648.54+121.11+1647.8+122.252+1647.8+123.458C1647.8+125.743+1650.34+131.488+1655.42+140.692L1678.78+183.444L1702.04+144.501C1707.83+134.979+1710.72+128.663+1710.72+125.553C1710.72+123.839+1709.89+122.411+1708.24+121.268C1706.08+119.681+1702.11+118.729+1696.32+118.412L1696.32+114.889L1735.79+114.889Z" opacity="1" fill="#805cb2"/>
</g>
</g>
</svg>
